<svg width="40" height="40" viewBox="0 0 40 40" fill="none" xmlns="http://www.w3.org/2000/svg">
<path fill-rule="evenodd" clip-rule="evenodd" d="M19.9999 7.91602C18.3891 7.91602 17.0833 9.22187 17.0833 10.8327C17.0833 11.523 16.5236 12.0827 15.8333 12.0827C15.1429 12.0827 14.5833 11.523 14.5833 10.8327C14.5833 7.84116 17.0084 5.41602 19.9999 5.41602C22.9914 5.41602 25.4166 7.84116 25.4166 10.8327C25.4166 13.394 23.6388 15.5401 21.2499 16.1044V18.3327C21.2499 19.023 20.6903 19.5827 19.9999 19.5827C19.3096 19.5827 18.7499 19.023 18.7499 18.3327V14.9993C18.7499 14.309 19.3096 13.7493 19.9999 13.7493C21.6107 13.7493 22.9166 12.4435 22.9166 10.8327C22.9166 9.22187 21.6107 7.91602 19.9999 7.91602Z" fill="#C6A15B"/>
<path fill-rule="evenodd" clip-rule="evenodd" d="M4.74913 28.7494H35.2507C34.3668 25.1622 29.8758 19.5827 19.9999 19.5827C10.1241 19.5827 5.63303 25.1622 4.74913 28.7494ZM2.08325 29.9994C2.08325 25.0027 7.79134 17.0827 19.9999 17.0827C32.2085 17.0827 37.9166 25.0027 37.9166 29.9994C37.9166 30.6897 37.3569 31.2494 36.6666 31.2494H3.33325C2.6429 31.2494 2.08325 30.6897 2.08325 29.9994Z" fill="#C6A15B"/>
</svg>
