<svg width="40" height="40" viewBox="0 0 40 40" fill="none" xmlns="http://www.w3.org/2000/svg">
<path d="M19.9999 4.58398C11.4855 4.58398 4.58325 11.4863 4.58325 20.0007C4.58325 28.515 11.4855 35.4173 19.9999 35.4173C28.5143 35.4173 35.4166 28.515 35.4166 20.0007C35.4166 11.4863 28.5143 4.58398 19.9999 4.58398ZM2.08325 20.0007C2.08325 10.1055 10.1048 2.08398 19.9999 2.08398C29.895 2.08398 37.9166 10.1055 37.9166 20.0007C37.9166 29.8958 29.895 37.9173 19.9999 37.9173C10.1048 37.9173 2.08325 29.8958 2.08325 20.0007Z" fill="#C6A15B"/>
<path d="M19.931 11.2276L20.1792 11.2636C22.1303 11.5463 24.5833 14.1131 24.5833 20.0007C24.5833 22.9912 23.9716 25.1062 23.1175 26.5187C22.691 27.224 22.1979 27.7631 21.6835 28.1361C21.189 28.4948 20.6009 28.7507 19.9999 28.7507H19.9197L19.8402 28.7404C18.7281 28.5972 17.614 27.6788 16.8223 26.3098C15.9981 24.8847 15.4166 22.8189 15.4166 20.0007C15.4166 14.4194 17.7526 11.7887 19.6881 11.2902L19.931 11.2276ZM19.8207 13.7378C19.8204 13.7377 19.8203 13.7377 19.8207 13.7378L19.9999 12.5007L20.3117 13.7112C20.2581 13.7249 20.1654 13.7638 20.0467 13.8375C20.0015 13.8109 19.9612 13.7905 19.9266 13.7751C19.8607 13.7458 19.8244 13.7385 19.8207 13.7378ZM20.0481 26.2164C20.0896 26.1956 20.1458 26.1631 20.2158 26.1123C20.4218 25.963 20.6985 25.6877 20.9782 25.2251C21.5365 24.3017 22.0833 22.6667 22.0833 20.0007C22.0833 17.3361 21.5371 15.7413 20.9828 14.839C20.7054 14.3875 20.4252 14.1071 20.2032 13.9419C20.1464 13.8996 20.0939 13.8652 20.0467 13.8375C19.3853 14.2482 17.9166 15.7404 17.9166 20.0007C17.9166 22.4854 18.4299 24.0959 18.9864 25.0582C19.2654 25.5406 19.5506 25.853 19.782 26.04C19.8938 26.1303 19.9839 26.1844 20.0481 26.2164ZM20.0481 26.2164C20.1134 26.2491 20.1518 26.2588 20.1587 26.2606C20.1593 26.2607 20.1599 26.2609 20.1587 26.2606L19.9999 27.5007V26.2507C19.9749 26.2507 19.9627 26.2525 19.9626 26.252C19.9624 26.2512 19.9917 26.2447 20.0481 26.2164Z" fill="#C6A15B"/>
<path d="M15.5782 17.2669C16.2473 17.4382 16.992 17.731 17.5455 18.279L15.7867 20.0557C15.6931 19.963 15.4495 19.8146 14.958 19.6888C14.4897 19.5688 13.9149 19.4989 13.2927 19.4687C12.5379 19.4321 11.7731 19.4562 11.1416 19.4954C11.1596 19.9253 11.2377 20.4551 11.4007 21.0352C11.6904 22.0666 12.1847 23.0246 12.7905 23.6243C13.7568 24.581 14.5287 25.1952 15.5189 25.6006C16.5222 26.0114 17.8579 26.2507 19.9999 26.2507V28.7507C17.6931 28.7507 15.9948 28.4969 14.5716 27.9142C13.1353 27.3261 12.0874 26.4462 11.0316 25.4009C10.0196 24.399 9.35625 23.0016 8.99379 21.7113C8.63844 20.4461 8.50699 19.0473 8.79492 18.002L9.02284 17.1746L9.87693 17.0901C10.5679 17.0217 11.984 16.9022 13.4139 16.9716C14.1278 17.0063 14.8859 17.0896 15.5782 17.2669Z" fill="#C6A15B"/>
<path d="M24.9263 19.6788C24.5333 19.7941 24.3332 19.9283 24.2456 20.0218L22.4209 18.3128C22.9316 17.7675 23.6039 17.4615 24.2222 17.28C24.8518 17.0952 25.5297 17.0093 26.1606 16.9736C27.4218 16.9022 28.6667 17.0235 29.2993 17.091L30.224 17.1898L30.3952 18.1039C30.6934 19.6961 30.5471 23.1366 28.102 25.7474C26.8296 27.106 25.0908 27.8406 23.6041 28.242C22.1032 28.6473 20.7179 28.7507 19.9999 28.7507V26.2507C20.532 26.2507 21.6946 26.168 22.9525 25.8284C24.2247 25.4849 25.4557 24.9157 26.2772 24.0385C27.627 22.5972 28.0023 20.7457 28.0099 19.4872C27.4899 19.4538 26.8913 19.4363 26.3019 19.4696C25.7798 19.4992 25.3078 19.5668 24.9263 19.6788Z" fill="#C6A15B"/>
</svg>
