<svg width="40" height="40" viewBox="0 0 40 40" fill="none" xmlns="http://www.w3.org/2000/svg">
<path fill-rule="evenodd" clip-rule="evenodd" d="M15.8333 11.25C15.1429 11.25 14.5833 11.8096 14.5833 12.5V22.5C14.5833 23.1904 15.1429 23.75 15.8333 23.75H34.1666C34.8569 23.75 35.4166 23.1904 35.4166 22.5V12.5C35.4166 11.8096 34.8569 11.25 34.1666 11.25H15.8333ZM12.0833 12.5C12.0833 10.4289 13.7622 8.75 15.8333 8.75H34.1666C36.2377 8.75 37.9166 10.4289 37.9166 12.5V22.5C37.9166 24.5711 36.2377 26.25 34.1666 26.25H15.8333C13.7622 26.25 12.0833 24.5711 12.0833 22.5V12.5Z" fill="#C6A15B"/>
<path fill-rule="evenodd" clip-rule="evenodd" d="M19.9999 13.75C20.6903 13.75 21.2499 14.3096 21.2499 15V20C21.2499 20.6904 20.6903 21.25 19.9999 21.25C19.3096 21.25 18.7499 20.6904 18.7499 20V15C18.7499 14.3096 19.3096 13.75 19.9999 13.75Z" fill="#C6A15B"/>
<path fill-rule="evenodd" clip-rule="evenodd" d="M29.9999 13.75C30.6903 13.75 31.2499 14.3096 31.2499 15V20C31.2499 20.6904 30.6903 21.25 29.9999 21.25C29.3096 21.25 28.7499 20.6904 28.7499 20V15C28.7499 14.3096 29.3096 13.75 29.9999 13.75Z" fill="#C6A15B"/>
<path fill-rule="evenodd" clip-rule="evenodd" d="M18.7499 5C18.7499 4.30964 19.3096 3.75 19.9999 3.75H29.9999C30.6903 3.75 31.2499 4.30964 31.2499 5V10C31.2499 10.6904 30.6903 11.25 29.9999 11.25C29.3096 11.25 28.7499 10.6904 28.7499 10V6.25H21.2499V10C21.2499 10.6904 20.6903 11.25 19.9999 11.25C19.3096 11.25 18.7499 10.6904 18.7499 10V5Z" fill="#C6A15B"/>
<path fill-rule="evenodd" clip-rule="evenodd" d="M2.08325 7.5C2.08325 6.80964 2.6429 6.25 3.33325 6.25H6.66659C8.27742 6.25 9.58325 7.55584 9.58325 9.16667V28.3333C9.58325 28.5635 9.76978 28.75 9.99992 28.75H36.6666C37.3569 28.75 37.9166 29.3096 37.9166 30C37.9166 30.6904 37.3569 31.25 36.6666 31.25H9.99992C8.38906 31.25 7.08325 29.9442 7.08325 28.3333V9.16667C7.08325 8.93655 6.8967 8.75 6.66659 8.75H3.33325C2.6429 8.75 2.08325 8.19036 2.08325 7.5Z" fill="#C6A15B"/>
<path fill-rule="evenodd" clip-rule="evenodd" d="M12.0833 30C12.0833 29.3096 12.6429 28.75 13.3333 28.75H18.3333C19.0236 28.75 19.5833 29.3096 19.5833 30V32.5C19.5833 34.5711 17.9044 36.25 15.8333 36.25C13.7621 36.25 12.0833 34.5711 12.0833 32.5V30ZM14.5833 31.25V32.5C14.5833 33.1904 15.1429 33.75 15.8333 33.75C16.5236 33.75 17.0833 33.1904 17.0833 32.5V31.25H14.5833Z" fill="#C6A15B"/>
<path fill-rule="evenodd" clip-rule="evenodd" d="M27.0833 30C27.0833 29.3096 27.6429 28.75 28.3333 28.75H33.3333C34.0236 28.75 34.5833 29.3096 34.5833 30V32.5C34.5833 34.5711 32.9044 36.25 30.8333 36.25C28.7621 36.25 27.0833 34.5711 27.0833 32.5V30ZM29.5833 31.25V32.5C29.5833 33.1904 30.1429 33.75 30.8333 33.75C31.5236 33.75 32.0833 33.1904 32.0833 32.5V31.25H29.5833Z" fill="#C6A15B"/>
</svg>
