<svg width="40" height="40" viewBox="0 0 40 40" fill="none" xmlns="http://www.w3.org/2000/svg">
<path fill-rule="evenodd" clip-rule="evenodd" d="M11.6666 2.08398C12.3569 2.08398 12.9166 2.64363 12.9166 3.33398V36.6673C12.9166 37.3577 12.3569 37.9173 11.6666 37.9173C10.9762 37.9173 10.4166 37.3577 10.4166 36.6673V3.33398C10.4166 2.64363 10.9762 2.08398 11.6666 2.08398Z" fill="#C6A15B"/>
<path fill-rule="evenodd" clip-rule="evenodd" d="M11.5075 6.11037C11.5075 6.11037 11.5078 6.11053 12.0832 5.00084C12.6586 3.89115 12.6592 3.89144 12.6592 3.89144L12.6624 3.89313L12.6703 3.89725L12.6981 3.91186L12.8004 3.96621C12.8887 4.0135 13.0165 4.08274 13.1792 4.17291C13.5044 4.35321 13.9693 4.61749 14.5362 4.95762C15.6687 5.63712 17.2147 6.62323 18.8697 7.85114C22.1353 10.274 26.0048 13.7675 27.8088 17.8265C29.5969 21.8497 29.7933 26.6725 29.5812 30.3847C29.474 32.2594 29.26 33.8914 29.0725 35.0562C28.9787 35.6392 28.8913 36.1069 28.8267 36.4313C28.7945 36.5935 28.7679 36.72 28.7491 36.8074L28.7269 36.9086L28.7206 36.9364L28.7182 36.947C28.7182 36.947 28.7178 36.9486 27.4999 36.6675C26.2819 36.3864 26.2818 36.3868 26.2818 36.3868L26.2827 36.3828L26.287 36.3638L26.3052 36.2806C26.3214 36.2056 26.3452 36.0921 26.3748 35.9435C26.434 35.6461 26.5158 35.2088 26.6043 34.659C26.7814 33.5582 26.984 32.0131 27.0852 30.242C27.2898 26.6625 27.0695 22.3187 25.5243 18.8418C23.9949 15.4009 20.5728 12.2277 17.3801 9.85888C15.8059 8.69095 14.331 7.74998 13.25 7.10135C12.7101 6.77742 12.27 6.52738 11.967 6.35937C11.8155 6.27539 11.6984 6.21198 11.6203 6.17015L11.533 6.12375L11.5124 6.11295L11.5075 6.11037Z" fill="#C6A15B"/>
<path fill-rule="evenodd" clip-rule="evenodd" d="M2.08325 36.6673C2.08325 35.977 2.6429 35.4173 3.33325 35.4173H36.6666C37.3569 35.4173 37.9166 35.977 37.9166 36.6673C37.9166 37.3577 37.3569 37.9173 36.6666 37.9173H3.33325C2.6429 37.9173 2.08325 37.3577 2.08325 36.6673Z" fill="#C6A15B"/>
<path fill-rule="evenodd" clip-rule="evenodd" d="M7.08325 12.5007C7.08325 11.8103 7.6429 11.2507 8.33325 11.2507H26.6666C27.3569 11.2507 27.9166 11.8103 27.9166 12.5007C27.9166 13.191 27.3569 13.7507 26.6666 13.7507H8.33325C7.6429 13.7507 7.08325 13.191 7.08325 12.5007Z" fill="#C6A15B"/>
<path fill-rule="evenodd" clip-rule="evenodd" d="M10.4166 18.334C10.4166 17.6436 10.9762 17.084 11.6666 17.084H18.3333C19.0236 17.084 19.5833 17.6436 19.5833 18.334C19.5833 19.0243 19.0236 19.584 18.3333 19.584H11.6666C10.9762 19.584 10.4166 19.0243 10.4166 18.334Z" fill="#C6A15B"/>
<path fill-rule="evenodd" clip-rule="evenodd" d="M10.4166 24.1673C10.4166 23.477 10.9762 22.9173 11.6666 22.9173H21.6666C22.3569 22.9173 22.9166 23.477 22.9166 24.1673C22.9166 24.8577 22.3569 25.4173 21.6666 25.4173H11.6666C10.9762 25.4173 10.4166 24.8577 10.4166 24.1673Z" fill="#C6A15B"/>
<path fill-rule="evenodd" clip-rule="evenodd" d="M10.4166 30.0007C10.4166 29.3103 10.9762 28.7507 11.6666 28.7507H22.4999C23.1903 28.7507 23.7499 29.3103 23.7499 30.0007C23.7499 30.691 23.1903 31.2507 22.4999 31.2507H11.6666C10.9762 31.2507 10.4166 30.691 10.4166 30.0007Z" fill="#C6A15B"/>
</svg>
