<svg width="40" height="40" viewBox="0 0 40 40" fill="none" xmlns="http://www.w3.org/2000/svg">
<path fill-rule="evenodd" clip-rule="evenodd" d="M2.08325 13.3337C2.08325 12.6434 2.6429 12.0837 3.33325 12.0837H36.6666C37.3569 12.0837 37.9166 12.6434 37.9166 13.3337V35.0004C37.9166 35.6908 37.3569 36.2504 36.6666 36.2504H3.33325C2.6429 36.2504 2.08325 35.6908 2.08325 35.0004V13.3337ZM4.58325 14.5837V33.7504H35.4166V14.5837H4.58325Z" fill="#C6A15B"/>
<path fill-rule="evenodd" clip-rule="evenodd" d="M2.08325 5.00041C2.08325 4.31005 2.6429 3.75041 3.33325 3.75041H36.6666C37.3569 3.75041 37.9166 4.31005 37.9166 5.00041V13.3337C37.9166 14.0241 37.3569 14.5837 36.6666 14.5837H3.33325C2.6429 14.5837 2.08325 14.0241 2.08325 13.3337V5.00041ZM4.58325 6.25041V12.0837H35.4166V6.25041H4.58325Z" fill="#C6A15B"/>
<path fill-rule="evenodd" clip-rule="evenodd" d="M21.2027 3.83974C21.8437 3.58334 22.5711 3.89511 22.8275 4.53609L26.1608 12.8694C26.4172 13.5104 26.1055 14.2379 25.4645 14.4943C24.8235 14.7507 24.096 14.4389 23.8397 13.7979L20.5063 5.46457C20.2499 4.82359 20.5617 4.09613 21.2027 3.83974Z" fill="#C6A15B"/>
<path fill-rule="evenodd" clip-rule="evenodd" d="M14.536 3.83974C15.177 3.58334 15.9045 3.89511 16.1608 4.53609L19.4942 12.8694C19.7506 13.5104 19.4388 14.2379 18.7978 14.4943C18.1568 14.7507 17.4294 14.4389 17.173 13.7979L13.8397 5.46457C13.5833 4.82359 13.895 4.09613 14.536 3.83974Z" fill="#C6A15B"/>
<path fill-rule="evenodd" clip-rule="evenodd" d="M7.86935 3.83974C8.51033 3.58334 9.23779 3.89511 9.49418 4.53609L12.8275 12.8694C13.0839 13.5104 12.7721 14.2379 12.1312 14.4943C11.4902 14.7507 10.7627 14.4389 10.5063 13.7979L7.17299 5.46457C6.9166 4.82359 7.22837 4.09613 7.86935 3.83974Z" fill="#C6A15B"/>
<path fill-rule="evenodd" clip-rule="evenodd" d="M27.8693 3.83974C28.5103 3.58334 29.2378 3.89511 29.4942 4.53609L32.8275 12.8694C33.0839 13.5104 32.7721 14.2379 32.1312 14.4943C31.4902 14.7507 30.7627 14.4389 30.5063 13.7979L27.173 5.46457C26.9166 4.82359 27.2284 4.09613 27.8693 3.83974Z" fill="#C6A15B"/>
<path fill-rule="evenodd" clip-rule="evenodd" d="M8.74992 20.0004C8.74992 19.3101 9.30956 18.7504 9.99992 18.7504H29.9999C30.6903 18.7504 31.2499 19.3101 31.2499 20.0004C31.2499 20.6908 30.6903 21.2504 29.9999 21.2504H9.99992C9.30956 21.2504 8.74992 20.6908 8.74992 20.0004Z" fill="#C6A15B"/>
<path fill-rule="evenodd" clip-rule="evenodd" d="M8.74992 26.6671C8.74992 25.9767 9.30956 25.4171 9.99992 25.4171H19.9999C20.6903 25.4171 21.2499 25.9767 21.2499 26.6671C21.2499 27.3574 20.6903 27.9171 19.9999 27.9171H9.99992C9.30956 27.9171 8.74992 27.3574 8.74992 26.6671Z" fill="#C6A15B"/>
</svg>
