<svg width="40" height="40" viewBox="0 0 40 40" fill="none" xmlns="http://www.w3.org/2000/svg">
<path d="M36.2694 14.4288C36.2694 10.8933 33.3231 10.8933 31.2608 8.83093C29.1984 6.76857 29.1983 3.82222 25.6628 3.82227C23.3058 3.82225 21.2434 6.4739 21.2434 8.24169C21.2434 10.0095 21.8327 11.1879 23.0112 12.3665L12.4045 22.9731C11.2261 21.7946 10.0475 21.2053 8.27978 21.2053C6.51204 21.2053 3.86031 23.2677 3.86035 25.6247C3.56569 29.4548 7.10132 29.4549 8.86903 31.2227C10.6368 32.9903 10.6368 36.5259 14.4669 36.2313C16.8239 36.2313 18.8864 33.5798 18.8864 31.8119C18.8864 30.0441 18.2972 28.8657 17.1186 27.6871L27.7252 17.0805C28.9037 18.259 30.0823 18.8483 31.85 18.8483C33.6178 18.8483 36.2694 16.7858 36.2694 14.4288Z" stroke="#C6A15B" stroke-width="2.5" stroke-linejoin="round"/>
</svg>
