<svg width="40" height="40" viewBox="0 0 40 40" fill="none" xmlns="http://www.w3.org/2000/svg">
<path fill-rule="evenodd" clip-rule="evenodd" d="M19.7 4.58398C17.8067 4.58398 16.1204 5.46686 15.0285 6.84837C14.7199 7.23889 14.209 7.40908 13.7279 7.28167C13.2417 7.15294 12.7299 7.08398 12.2 7.08398C8.91391 7.08398 6.25 9.74792 6.25 13.034C6.25 15.9325 8.32387 18.3494 11.0692 18.8769C11.6578 18.99 12.0833 19.5051 12.0833 20.1045V33.334C12.0833 33.5641 12.2699 33.7507 12.5 33.7507H27.5C27.7301 33.7507 27.9167 33.5641 27.9167 33.334V20.1045C27.9167 19.5051 28.3422 18.99 28.9308 18.8769C31.6761 18.3494 33.75 15.9325 33.75 13.034C33.75 9.74792 31.0861 7.08398 27.8 7.08398C27.1225 7.08398 26.4741 7.19669 25.8708 7.40337C25.358 7.57904 24.7904 7.40417 24.4653 6.97037C23.3779 5.51913 21.6484 4.58398 19.7 4.58398ZM13.5892 4.69783C15.1265 3.08884 17.2962 2.08398 19.7 2.08398C22.1532 2.08398 24.3623 3.13045 25.9046 4.79767C26.5148 4.65774 27.1494 4.58398 27.8 4.58398C32.4668 4.58398 36.25 8.36721 36.25 13.034C36.25 16.7883 33.8027 19.9688 30.4167 21.0707V33.334C30.4167 34.9448 29.1109 36.2507 27.5 36.2507H12.5C10.8891 36.2507 9.58333 34.9448 9.58333 33.334V21.0707C6.19734 19.9688 3.75 16.7883 3.75 13.034C3.75 8.36722 7.53319 4.58398 12.2 4.58398C12.6725 4.58398 13.1367 4.62289 13.5892 4.69783Z" fill="#C6A15B"/>
<path fill-rule="evenodd" clip-rule="evenodd" d="M9.58333 25.834C9.58333 25.1436 10.143 24.584 10.8333 24.584H29.1667C29.857 24.584 30.4167 25.1436 30.4167 25.834C30.4167 26.5243 29.857 27.084 29.1667 27.084H10.8333C10.143 27.084 9.58333 26.5243 9.58333 25.834Z" fill="#C6A15B"/>
<path fill-rule="evenodd" clip-rule="evenodd" d="M16.6667 19.584C17.357 19.584 17.9167 20.1436 17.9167 20.834V25.834C17.9167 26.5243 17.357 27.084 16.6667 27.084C15.9763 27.084 15.4167 26.5243 15.4167 25.834V20.834C15.4167 20.1436 15.9763 19.584 16.6667 19.584Z" fill="#C6A15B"/>
<path fill-rule="evenodd" clip-rule="evenodd" d="M29.1667 22.084C29.857 22.084 30.4167 22.6436 30.4167 23.334V28.334C30.4167 29.0243 29.857 29.584 29.1667 29.584C28.4763 29.584 27.9167 29.0243 27.9167 28.334V23.334C27.9167 22.6436 28.4763 22.084 29.1667 22.084Z" fill="#C6A15B"/>
<path fill-rule="evenodd" clip-rule="evenodd" d="M10.8333 22.084C11.5237 22.084 12.0833 22.6436 12.0833 23.334V28.334C12.0833 29.0243 11.5237 29.584 10.8333 29.584C10.143 29.584 9.58333 29.0243 9.58333 28.334V23.334C9.58333 22.6436 10.143 22.084 10.8333 22.084Z" fill="#C6A15B"/>
</svg>
