<svg width="40" height="40" viewBox="0 0 40 40" fill="none" xmlns="http://www.w3.org/2000/svg">
<path fill-rule="evenodd" clip-rule="evenodd" d="M32.2647 13.75C32.0681 13.75 31.8743 13.7964 31.699 13.8853L13.1472 23.301C13.1471 23.301 13.1472 23.301 13.1472 23.301C12.268 23.7473 11.2483 23.8293 10.3091 23.5293M10.3091 23.5293L7.57679 22.6568C7.57677 22.6568 7.57682 22.6568 7.57679 22.6568C7.30623 22.5704 7.01428 22.5787 6.74914 22.6803L5.74595 23.0647L9.5513 26.3084C9.93312 26.6339 10.4725 26.6995 10.9211 26.4752L17.7743 23.0486C18.3917 22.7399 19.1426 22.9902 19.4513 23.6077C19.76 24.2251 19.5098 24.976 18.8923 25.2847L12.0393 28.7112C12.0392 28.7112 12.0393 28.7112 12.0393 28.7112C10.6931 29.3843 9.07493 29.1873 7.92959 28.2111L2.52239 23.602C2.18671 23.3158 2.02668 22.874 2.10129 22.4392C2.1759 22.0045 2.4741 21.6413 2.88598 21.4834L5.85451 20.3459C6.65007 20.041 7.52568 20.0161 8.33719 20.2752L11.0696 21.1478C11.3827 21.2478 11.7226 21.2205 12.0156 21.0718L30.5676 11.656C31.0934 11.3891 31.6749 11.25 32.2647 11.25H36.6666C37.0998 11.25 37.5022 11.4743 37.7299 11.8428C37.9577 12.2114 37.9784 12.6715 37.7846 13.059L36.4906 15.647C36.1278 16.3728 35.5394 16.9612 34.8136 17.324L27.2256 21.118C26.6082 21.4268 25.8573 21.1765 25.5486 20.559C25.2398 19.9415 25.4901 19.1907 26.1076 18.882L33.6956 15.088C33.9375 14.967 34.1336 14.7709 34.2546 14.529L34.6441 13.75H32.2647" fill="#C6A15B"/>
<path fill-rule="evenodd" clip-rule="evenodd" d="M27.2514 18.8953C27.8616 19.2183 28.0943 19.9748 27.7713 20.5849L20.2713 34.7516C20.0522 35.1654 19.6203 35.4221 19.1521 35.4166C18.6839 35.4112 18.258 35.1445 18.0486 34.7257L13.8819 26.3924C13.7336 26.0959 13.7092 25.7526 13.8141 25.4381C13.9189 25.1236 14.1444 24.8636 14.4409 24.7153L17.7743 23.0486C18.3917 22.7399 19.1426 22.9902 19.4513 23.6077C19.76 24.2251 19.5098 24.976 18.8923 25.2847L16.677 26.3924L19.1983 31.4351L25.5619 19.4152C25.8849 18.8051 26.6413 18.5723 27.2514 18.8953Z" fill="#C6A15B"/>
<path fill-rule="evenodd" clip-rule="evenodd" d="M9.00811 12.5725C9.31121 12.1774 9.81996 11.9998 10.3031 12.1206L23.6364 15.4539C24.3062 15.6214 24.7134 16.3 24.5459 16.9698C24.3785 17.6395 23.6998 18.0467 23.0301 17.8793L12.4918 15.2447L15.2593 20.2262C15.5946 20.8297 15.3771 21.5907 14.7736 21.926C14.1702 22.2613 13.4092 22.0438 13.0739 21.4403L8.90723 13.9403C8.66537 13.505 8.70501 12.9676 9.00811 12.5725Z" fill="#C6A15B"/>
</svg>
