<svg width="40" height="40" viewBox="0 0 40 40" fill="none" xmlns="http://www.w3.org/2000/svg">
<path fill-rule="evenodd" clip-rule="evenodd" d="M3.75 5C3.75 4.30964 4.30964 3.75 5 3.75H35C35.6904 3.75 36.25 4.30964 36.25 5V35C36.25 35.6904 35.6904 36.25 35 36.25H5C4.30964 36.25 3.75 35.6904 3.75 35C3.75 34.3096 4.30964 33.75 5 33.75H33.75V6.25H5C4.30964 6.25 3.75 5.69036 3.75 5Z" fill="#C6A15B"/>
<path fill-rule="evenodd" clip-rule="evenodd" d="M4.26911 3.98596C4.59507 3.75102 5.0141 3.68709 5.39528 3.81416L20.3953 8.81415C20.9057 8.9843 21.25 9.46197 21.25 10V30C21.25 30.538 20.9057 31.0157 20.3953 31.1859L5.39528 36.1859C5.0141 36.3129 4.59507 36.249 4.26911 36.0141C3.94315 35.7791 3.75 35.4018 3.75 35V5C3.75 4.5982 3.94315 4.2209 4.26911 3.98596ZM6.25 6.73429V33.2657L18.75 29.0991V10.901L6.25 6.73429Z" fill="#C6A15B"/>
<path fill-rule="evenodd" clip-rule="evenodd" d="M15 17.0833C15.6904 17.0833 16.25 17.643 16.25 18.3333V21.6667C16.25 22.357 15.6904 22.9167 15 22.9167C14.3096 22.9167 13.75 22.357 13.75 21.6667V18.3333C13.75 17.643 14.3096 17.0833 15 17.0833Z" fill="#C6A15B"/>
</svg>
