<svg width="40" height="40" viewBox="0 0 40 40" fill="none" xmlns="http://www.w3.org/2000/svg">
<path fill-rule="evenodd" clip-rule="evenodd" d="M2.23995 29.3944C2.46023 28.997 2.87885 28.7504 3.33325 28.7504H36.6666C37.121 28.7504 37.5396 28.997 37.7599 29.3944C37.9802 29.7918 37.9674 30.2775 37.7266 30.6629L33.5599 37.3295C33.3315 37.695 32.9309 37.917 32.4999 37.917H7.49992C7.06893 37.917 6.66834 37.695 6.43992 37.3295L2.27325 30.6629C2.03242 30.2775 2.01967 29.7918 2.23995 29.3944ZM5.58856 31.2504L8.19273 35.417H31.8071L34.4113 31.2504H5.58856Z" fill="#C6A15B"/>
<path fill-rule="evenodd" clip-rule="evenodd" d="M24.4628 10.9318C25.8337 10.3546 27.4227 10.3912 29.0266 11.4605C30.6862 12.5668 31.2816 14.1698 31.1411 15.7859C31.0417 16.9283 30.5837 18.044 29.9709 19.0187C30.1881 19.2768 30.4232 19.5958 30.6551 19.9824C31.4002 21.2242 32.0833 23.1142 32.0833 25.8339V30.0006C32.0833 30.6909 31.5236 31.2506 30.8333 31.2506H9.16659C8.47623 31.2506 7.91659 30.6909 7.91659 30.0006V25.0006C7.91659 21.6417 8.81739 19.1195 10.2645 17.2653C11.7023 15.4232 13.5993 14.3425 15.4269 13.7143C17.25 13.0876 19.0503 12.8942 20.3775 12.8527C21.0126 12.8329 21.5489 12.8476 21.9403 12.8688C22.5874 12.1172 23.4323 11.3657 24.4628 10.9318ZM22.3443 15.4075L22.3251 15.4053C22.3063 15.4033 22.2755 15.4 22.2335 15.3961C22.1495 15.3882 22.0211 15.3776 21.8546 15.3679C21.5211 15.3486 21.0379 15.3333 20.4556 15.3515C19.2828 15.3882 17.7498 15.5594 16.2396 16.0785C14.7339 16.5961 13.2976 17.4425 12.2353 18.8035C11.1824 20.1525 10.4166 22.1095 10.4166 25.0006V28.7506H29.5833V25.8339C29.5833 23.5536 29.0163 22.1102 28.5114 21.2687C28.256 20.8431 28.0086 20.5583 27.84 20.3897C27.7555 20.3052 27.6906 20.2497 27.6542 20.2202C27.6381 20.2071 27.6276 20.1992 27.6234 20.1961C27.341 20.0013 27.1508 19.6987 27.0981 19.359C27.0443 19.0128 27.1383 18.6599 27.3572 18.3864C28.0973 17.4612 28.5748 16.4395 28.6505 15.5694C28.7183 14.7897 28.4804 14.1009 27.6399 13.5406C26.7438 12.9432 26.0411 12.9799 25.4329 13.2359C24.737 13.529 24.0657 14.1628 23.4999 14.9172C23.2312 15.2756 22.7913 15.4627 22.3468 15.4078C22.3467 15.4078 22.3469 15.4078 22.3468 15.4078C22.3465 15.4078 22.3446 15.4076 22.3443 15.4075Z" fill="#C6A15B"/>
<path fill-rule="evenodd" clip-rule="evenodd" d="M18.078 21.1086C18.6815 20.794 18.9235 20.0523 18.618 19.4412C18.3092 18.8237 17.5584 18.5735 16.9409 18.8822L17.4999 20.0002C16.9409 18.8822 16.9413 18.882 16.9409 18.8822L16.9391 18.8831L16.9373 18.884L16.9333 18.886L16.9244 18.8906L16.903 18.9018C16.8872 18.9102 16.8682 18.9206 16.8462 18.933C16.8023 18.9579 16.7466 18.9911 16.6807 19.0334C16.5491 19.118 16.3771 19.2393 16.1789 19.4045C15.7816 19.7356 15.2818 20.2405 14.7932 20.9735C14.2708 21.7572 14.0126 22.5352 13.8839 23.1145C13.8191 23.4058 13.7858 23.6526 13.7686 23.8335C13.7599 23.9242 13.7553 23.999 13.7528 24.0552C13.7515 24.0834 13.7508 24.107 13.7504 24.1257L13.75 24.15L13.7499 24.1594L13.7499 24.1634L13.7499 24.1652C13.7499 24.1656 13.7499 24.1669 14.9999 24.1669H13.7499C13.7499 24.8573 14.3096 25.4169 14.9999 25.4169C15.6864 25.4169 16.2436 24.8635 16.2499 24.1785L16.2503 24.1662C16.2511 24.1493 16.2529 24.1166 16.2573 24.0706C16.2661 23.978 16.2849 23.8343 16.3243 23.6568C16.4039 23.2986 16.5624 22.8266 16.8733 22.3603C17.218 21.8433 17.5515 21.5149 17.7793 21.3251C17.8936 21.2299 17.982 21.1689 18.0326 21.1363C18.0567 21.1208 18.0723 21.1118 18.078 21.1086Z" fill="#C6A15B"/>
<path fill-rule="evenodd" clip-rule="evenodd" d="M27.373 11.7L31.5396 6.69999L33.4602 8.30039L29.2935 13.3004L27.373 11.7Z" fill="#C6A15B"/>
<path d="M30.7659 7.94092C31.7076 8.60206 33.0069 8.37462 33.6681 7.43294C34.3292 6.49125 34.1018 5.19192 33.1601 4.53078C32.2184 3.86965 30.919 4.09708 30.2579 5.03877C29.5968 5.98045 29.8242 7.27979 30.7659 7.94092Z" fill="#C6A15B"/>
<path d="M32.8122 9.37728C33.7539 10.0384 35.0532 9.81098 35.7144 8.8693C36.3755 7.92762 36.1481 6.62828 35.2064 5.96714C34.2647 5.30601 32.9653 5.53344 32.3042 6.47513C31.6431 7.41681 31.8705 8.71615 32.8122 9.37728Z" fill="#C6A15B"/>
</svg>
