<svg width="40" height="40" viewBox="0 0 40 40" fill="none" xmlns="http://www.w3.org/2000/svg">
<path d="M3.215 13.3557C3.4525 13.0767 3.80041 12.916 4.16676 12.916H35.8334C36.1998 12.916 36.5477 13.0767 36.7852 13.3557C37.0227 13.6346 37.1259 14.0037 37.0674 14.3654L33.5674 36.032C33.4696 36.6376 32.9468 37.0827 32.3334 37.0827H7.66676C7.05335 37.0827 6.53058 36.6376 6.43275 36.032L2.93275 14.3654C2.87433 14.0037 2.97751 13.6346 3.215 13.3557ZM5.63488 15.416L8.73104 34.5827H31.2691L34.3653 15.416H5.63488Z" fill="#C6A15B"/>
<path d="M9.58342 14.166C9.58342 8.05743 14.147 2.91602 20.0001 2.91602C25.8532 2.91602 30.4168 8.05743 30.4168 14.166C30.4168 14.8564 29.8571 15.416 29.1668 15.416C28.4764 15.416 27.9168 14.8564 27.9168 14.166C27.9168 9.22893 24.2722 5.41602 20.0001 5.41602C15.728 5.41602 12.0834 9.22893 12.0834 14.166C12.0834 14.8564 11.5238 15.416 10.8334 15.416C10.1431 15.416 9.58342 14.8564 9.58342 14.166Z" fill="#C6A15B"/>
<path d="M14.1668 23.3327C15.0872 23.3327 15.8334 22.5865 15.8334 21.666C15.8334 20.7455 15.0872 19.9993 14.1668 19.9993C13.2463 19.9993 12.5001 20.7455 12.5001 21.666C12.5001 22.5865 13.2463 23.3327 14.1668 23.3327Z" fill="#C6A15B"/>
<path d="M16.0353 26.7987C15.6507 26.2303 14.8787 26.078 14.3067 26.4593C13.7323 26.8422 13.5771 27.6183 13.96 28.1927L15.0001 27.4993C13.96 28.1927 13.96 28.1927 13.96 28.1927L13.9614 28.1947L13.9629 28.1969L13.9663 28.2021L13.9752 28.2151L14.0009 28.2518C14.0215 28.2808 14.0492 28.3187 14.0839 28.3643C14.1533 28.4554 14.2514 28.5776 14.3783 28.7204C14.6314 29.0051 15.0046 29.3777 15.5001 29.7493C16.4949 30.4954 18.0015 31.2493 20.0001 31.2493C21.9986 31.2493 23.5053 30.4954 24.5001 29.7493C24.9956 29.3777 25.3688 29.0051 25.6219 28.7204C25.7488 28.5776 25.8469 28.4554 25.9163 28.3643C25.951 28.3187 25.9786 28.2808 25.9993 28.2518L26.0249 28.2151L26.0339 28.2021L26.0373 28.1969L26.0388 28.1947C26.0388 28.1947 26.0402 28.1927 25.0001 27.4993L26.0402 28.1927C26.4231 27.6183 26.2679 26.8422 25.6935 26.4593C25.1215 26.078 24.3495 26.2303 23.9649 26.7987L23.9639 26.8002L23.9622 26.8027L23.9649 26.7987L23.9606 26.8051L23.9622 26.8027C23.9568 26.8103 23.945 26.8264 23.9277 26.8492C23.8929 26.8949 23.8347 26.968 23.7533 27.0595C23.5897 27.2436 23.3379 27.496 23.0001 27.7493C22.3282 28.2532 21.3349 28.7493 20.0001 28.7493C18.6653 28.7493 17.672 28.2532 17.0001 27.7493C16.6623 27.496 16.4105 27.2436 16.2469 27.0595C16.1655 26.968 16.1073 26.8949 16.0725 26.8492C16.0551 26.8264 16.0437 26.8107 16.0383 26.803L16.0353 26.7987Z" fill="#C6A15B"/>
<path d="M25.8334 23.3327C26.7539 23.3327 27.5001 22.5865 27.5001 21.666C27.5001 20.7455 26.7539 19.9993 25.8334 19.9993C24.913 19.9993 24.1668 20.7455 24.1668 21.666C24.1668 22.5865 24.913 23.3327 25.8334 23.3327Z" fill="#C6A15B"/>
</svg>
