<svg width="40" height="40" viewBox="0 0 40 40" fill="none" xmlns="http://www.w3.org/2000/svg">
<path fill-rule="evenodd" clip-rule="evenodd" d="M5.83341 12.9171C5.6033 12.9171 5.41675 13.1036 5.41675 13.3337V33.3337C5.41675 33.5639 5.6033 33.7504 5.83341 33.7504H34.1667C34.3969 33.7504 34.5834 33.5639 34.5834 33.3337V13.3337C34.5834 13.1036 34.3969 12.9171 34.1667 12.9171H5.83341ZM2.91675 13.3337C2.91675 11.7229 4.22258 10.4171 5.83341 10.4171H34.1667C35.7776 10.4171 37.0834 11.7229 37.0834 13.3337V33.3337C37.0834 34.9446 35.7776 36.2504 34.1667 36.2504H5.83341C4.22258 36.2504 2.91675 34.9446 2.91675 33.3337V13.3337Z" fill="#C6A15B"/>
<path fill-rule="evenodd" clip-rule="evenodd" d="M32.7523 4.38004C33.0948 4.97944 32.8865 5.74301 32.2871 6.08552L20.6205 12.7522C20.0211 13.0947 19.2575 12.8865 18.915 12.2871C18.5725 11.6877 18.7807 10.9241 19.3801 10.5816L31.0468 3.91491C31.6462 3.5724 32.4097 3.78064 32.7523 4.38004Z" fill="#C6A15B"/>
<path fill-rule="evenodd" clip-rule="evenodd" d="M7.26902 4.34546C7.63083 3.75751 8.40076 3.5742 8.98871 3.93601L19.822 10.6027C20.41 10.9645 20.5933 11.7344 20.2315 12.3224C19.8697 12.9103 19.0997 13.0936 18.5118 12.7318L7.67847 6.06516C7.09052 5.70334 6.9072 4.93341 7.26902 4.34546Z" fill="#C6A15B"/>
<path fill-rule="evenodd" clip-rule="evenodd" d="M29.1667 15.4171C29.8571 15.4171 30.4167 15.9767 30.4167 16.6671V21.6671C30.4167 22.3574 29.8571 22.9171 29.1667 22.9171C28.4764 22.9171 27.9167 22.3574 27.9167 21.6671V16.6671C27.9167 15.9767 28.4764 15.4171 29.1667 15.4171Z" fill="#C6A15B"/>
<path d="M30.8334 28.3337C30.8334 27.4133 30.0872 26.6671 29.1667 26.6671C28.2463 26.6671 27.5001 27.4133 27.5001 28.3337C27.5001 29.2542 28.2463 30.0004 29.1667 30.0004C30.0872 30.0004 30.8334 29.2542 30.8334 28.3337Z" fill="#C6A15B"/>
</svg>
