<svg width="40" height="40" viewBox="0 0 40 40" fill="none" xmlns="http://www.w3.org/2000/svg">
<path fill-rule="evenodd" clip-rule="evenodd" d="M18.7501 7.50065C18.7501 4.50911 21.1752 2.08398 24.1667 2.08398C27.1583 2.08398 29.5834 4.50911 29.5834 7.50065C29.5834 10.4922 27.1583 12.9173 24.1667 12.9173C21.1752 12.9173 18.7501 10.4922 18.7501 7.50065ZM24.1667 4.58398C22.5559 4.58398 21.2501 5.88983 21.2501 7.50065C21.2501 9.11146 22.5559 10.4173 24.1667 10.4173C25.7776 10.4173 27.0834 9.11146 27.0834 7.50065C27.0834 5.88983 25.7776 4.58398 24.1667 4.58398Z" fill="#C6A15B"/>
<path d="M15.8334 38.334C17.2142 38.334 18.3334 37.2147 18.3334 35.834C18.3334 34.4532 17.2142 33.334 15.8334 33.334C14.4527 33.334 13.3334 34.4532 13.3334 35.834C13.3334 37.2147 14.4527 38.334 15.8334 38.334Z" fill="#C6A15B"/>
<path fill-rule="evenodd" clip-rule="evenodd" d="M20.912 14.6597C21.519 14.9884 21.7447 15.747 21.4161 16.3541L18.2563 22.1903L23.5407 26.5422C24.0052 26.9076 24.313 27.3888 24.4878 27.8863C24.494 27.9039 24.4998 27.9216 24.5052 27.9395L27.0302 36.3061C27.2296 36.967 26.8556 37.6645 26.1946 37.864C25.5337 38.0634 24.8363 37.6894 24.6368 37.0284L22.1219 28.6952C22.083 28.5943 22.0334 28.5367 21.9933 28.5057C21.9833 28.498 21.9735 28.4902 21.9639 28.4822L15.8722 23.4655C15.4105 23.0853 15.2828 22.4314 15.5676 21.9055L19.2176 15.1638C19.5463 14.5567 20.3049 14.331 20.912 14.6597Z" fill="#C6A15B"/>
<path fill-rule="evenodd" clip-rule="evenodd" d="M17.3961 21.4856C17.9567 21.8885 18.0846 22.6696 17.6818 23.2302L13.1142 29.5865C12.3272 30.7241 10.8515 31.1556 9.57615 30.6207L9.57385 30.6197L2.85287 27.8214C2.21555 27.556 1.91401 26.8243 2.17936 26.1869C2.44471 25.5496 3.17648 25.2481 3.8138 25.5134L10.5388 28.3134L10.5428 28.3151C10.7285 28.3932 10.9447 28.3302 11.0597 28.162L11.0766 28.138L15.6516 21.7713C16.0544 21.2107 16.8355 21.0828 17.3961 21.4856Z" fill="#C6A15B"/>
<path fill-rule="evenodd" clip-rule="evenodd" d="M12.3523 12.5785L15.0376 13.0538C18.9856 13.7622 22.7802 15.1529 26.2481 17.1837L28.913 18.6864C28.9858 18.7273 29.0738 18.7508 29.1668 18.7508H35.0001C35.6905 18.7508 36.2501 19.3105 36.2501 20.0008C36.2501 20.6912 35.6905 21.2508 35.0001 21.2508H29.1668C28.66 21.2508 28.1478 21.1243 27.6873 20.8653L24.993 19.3461C21.7805 17.4634 18.2622 16.1725 14.5975 15.5148L11.9156 15.04C11.8263 15.0241 11.723 15.0398 11.6359 15.0878L11.6053 15.104L6.40528 17.779C5.79139 18.0948 5.03773 17.8532 4.72193 17.2393C4.40613 16.6254 4.64778 15.8717 5.26167 15.556L10.4484 12.8878C11.0239 12.5763 11.6984 12.4624 12.3523 12.5785Z" fill="#C6A15B"/>
</svg>
