<svg width="40" height="40" viewBox="0 0 40 40" fill="none" xmlns="http://www.w3.org/2000/svg">
<path d="M9.58325 11.6673C9.58325 6.37458 13.8739 2.08398 19.1666 2.08398C24.4593 2.08398 28.7499 6.37458 28.7499 11.6673V36.6673C28.7499 37.3577 28.1903 37.9173 27.4999 37.9173H10.8333C10.1429 37.9173 9.58325 37.3577 9.58325 36.6673V22.5007C9.58325 21.8105 10.1426 21.2509 10.8327 21.2507M10.8327 21.2507L10.8394 21.2506L10.869 21.2504C10.8963 21.2501 10.9388 21.2496 10.9954 21.2485C11.1086 21.2462 11.2782 21.2416 11.4959 21.2323C11.9316 21.2136 12.5588 21.176 13.313 21.1006C14.8277 20.9491 16.8261 20.6477 18.8074 20.0534C20.8017 19.4551 22.6892 18.5861 24.0595 17.3528C25.13 16.3894 25.8924 15.2013 26.1523 13.6848L10.7708 12.9158C10.1056 12.8825 9.58325 12.3334 9.58325 11.6673M26.2499 18.7115C26.0833 18.8839 25.9104 19.0504 25.732 19.211C23.9773 20.7902 21.6981 21.7962 19.5258 22.4479C17.3404 23.1036 15.1721 23.4272 13.5618 23.5882C12.9961 23.6448 12.4957 23.6816 12.0833 23.7056V35.4173H26.2499V18.7115ZM26.2338 11.1858C25.9863 7.49834 22.9167 4.58398 19.1666 4.58398C15.6581 4.58398 12.7453 7.13487 12.1818 10.4832L26.2338 11.1858Z" fill="#C6A15B"/>
<path d="M23.3838 25.7834C23.872 26.2716 23.872 27.063 23.3838 27.5512L19.2171 31.7179C18.729 32.206 17.9375 32.206 17.4494 31.7179L14.9494 29.2179C14.4612 28.7297 14.4612 27.9383 14.9494 27.4501C15.4375 26.9619 16.229 26.9619 16.7171 27.4501L18.3333 29.0662L21.616 25.7834C22.1042 25.2953 22.8956 25.2953 23.3838 25.7834Z" fill="#C6A15B"/>
</svg>
