<svg width="40" height="40" viewBox="0 0 40 40" fill="none" xmlns="http://www.w3.org/2000/svg">
<path fill-rule="evenodd" clip-rule="evenodd" d="M2.91675 29.166C2.91675 24.7923 6.45972 21.2493 10.8334 21.2493C15.2071 21.2493 18.7501 24.7923 18.7501 29.166C18.7501 33.5397 15.2071 37.0827 10.8334 37.0827C6.45972 37.0827 2.91675 33.5397 2.91675 29.166ZM10.8334 23.7493C7.84044 23.7493 5.41675 26.173 5.41675 29.166C5.41675 32.159 7.84044 34.5827 10.8334 34.5827C13.8264 34.5827 16.2501 32.159 16.2501 29.166C16.2501 26.173 13.8264 23.7493 10.8334 23.7493Z" fill="#C6A15B"/>
<path fill-rule="evenodd" clip-rule="evenodd" d="M21.2501 29.166C21.2501 24.7923 24.7931 21.2493 29.1667 21.2493C33.5404 21.2493 37.0834 24.7923 37.0834 29.166C37.0834 33.5397 33.5404 37.0827 29.1667 37.0827C24.7931 37.0827 21.2501 33.5397 21.2501 29.166ZM29.1667 23.7493C26.1738 23.7493 23.7501 26.173 23.7501 29.166C23.7501 32.159 26.1738 34.5827 29.1667 34.5827C32.1597 34.5827 34.5834 32.159 34.5834 29.166C34.5834 26.173 32.1597 23.7493 29.1667 23.7493Z" fill="#C6A15B"/>
<path fill-rule="evenodd" clip-rule="evenodd" d="M3.75008 4.16602C3.75008 3.47566 4.30973 2.91602 5.00008 2.91602H35.0001C35.6904 2.91602 36.2501 3.47566 36.2501 4.16602C36.2501 4.85637 35.6904 5.41602 35.0001 5.41602H5.00008C4.30973 5.41602 3.75008 4.85637 3.75008 4.16602Z" fill="#C6A15B"/>
<path fill-rule="evenodd" clip-rule="evenodd" d="M10.8334 2.91602C11.5238 2.91602 12.0834 3.47566 12.0834 4.16602V22.4993C12.0834 23.1897 11.5238 23.7493 10.8334 23.7493C10.1431 23.7493 9.58341 23.1897 9.58341 22.4993V4.16602C9.58341 3.47566 10.1431 2.91602 10.8334 2.91602Z" fill="#C6A15B"/>
<path fill-rule="evenodd" clip-rule="evenodd" d="M29.1667 2.91602C29.8571 2.91602 30.4167 3.47566 30.4167 4.16602V22.4993C30.4167 23.1897 29.8571 23.7493 29.1667 23.7493C28.4764 23.7493 27.9167 23.1897 27.9167 22.4993V4.16602C27.9167 3.47566 28.4764 2.91602 29.1667 2.91602Z" fill="#C6A15B"/>
<path fill-rule="evenodd" clip-rule="evenodd" d="M6.25008 15.8327C6.25008 15.1423 6.80973 14.5827 7.50008 14.5827H14.1667C14.8571 14.5827 15.4167 15.1423 15.4167 15.8327C15.4167 16.523 14.8571 17.0827 14.1667 17.0827H7.50008C6.80973 17.0827 6.25008 16.523 6.25008 15.8327Z" fill="#C6A15B"/>
<path fill-rule="evenodd" clip-rule="evenodd" d="M24.5834 15.8327C24.5834 15.1423 25.1431 14.5827 25.8334 14.5827H32.5001C33.1904 14.5827 33.7501 15.1423 33.7501 15.8327C33.7501 16.523 33.1904 17.0827 32.5001 17.0827H25.8334C25.1431 17.0827 24.5834 16.523 24.5834 15.8327Z" fill="#C6A15B"/>
</svg>
