<svg width="40" height="40" viewBox="0 0 40 40" fill="none" xmlns="http://www.w3.org/2000/svg">
<path d="M2.08325 10C2.08325 9.30964 2.6429 8.75 3.33325 8.75H36.6666C37.3569 8.75 37.9166 9.30964 37.9166 10V30C37.9166 30.6904 37.3569 31.25 36.6666 31.25H3.33325C2.6429 31.25 2.08325 30.6904 2.08325 30V10ZM21.2499 28.75H35.4166V11.25H21.2499V16.6667C21.2499 17.357 20.6903 17.9167 19.9999 17.9167C19.3096 17.9167 18.7499 17.357 18.7499 16.6667V11.25H4.58325V28.75H18.7499V23.3333C18.7499 22.643 19.3096 22.0833 19.9999 22.0833C20.6903 22.0833 21.2499 22.643 21.2499 23.3333V28.75Z" fill="#C6A15B"/>
<path d="M19.9999 17.9167C18.8493 17.9167 17.9166 18.8494 17.9166 20C17.9166 21.1506 18.8493 22.0833 19.9999 22.0833C21.1505 22.0833 22.0833 21.1506 22.0833 20C22.0833 18.8494 21.1505 17.9167 19.9999 17.9167ZM15.4166 20C15.4166 17.4687 17.4686 15.4167 19.9999 15.4167C22.5312 15.4167 24.5833 17.4687 24.5833 20C24.5833 22.5313 22.5312 24.5833 19.9999 24.5833C17.4686 24.5833 15.4166 22.5313 15.4166 20Z" fill="#C6A15B"/>
<path d="M2.08325 16.6667C2.08325 15.9763 2.6429 15.4167 3.33325 15.4167H5.83325C8.36457 15.4167 10.4166 17.4687 10.4166 20C10.4166 22.5313 8.36457 24.5833 5.83325 24.5833H3.33325C2.6429 24.5833 2.08325 24.0237 2.08325 23.3333V16.6667ZM4.58325 17.9167V22.0833H5.83325C6.98384 22.0833 7.91659 21.1506 7.91659 20C7.91659 18.8494 6.98384 17.9167 5.83325 17.9167H4.58325Z" fill="#C6A15B"/>
<path d="M29.5833 20C29.5833 17.4687 31.6353 15.4167 34.1666 15.4167H36.6666C37.3569 15.4167 37.9166 15.9763 37.9166 16.6667V23.3333C37.9166 24.0237 37.3569 24.5833 36.6666 24.5833H34.1666C31.6353 24.5833 29.5833 22.5313 29.5833 20ZM34.1666 17.9167C33.016 17.9167 32.0833 18.8494 32.0833 20C32.0833 21.1506 33.016 22.0833 34.1666 22.0833H35.4166V17.9167H34.1666Z" fill="#C6A15B"/>
</svg>
