<svg width="40" height="40" viewBox="0 0 40 40" fill="none" xmlns="http://www.w3.org/2000/svg">
<path fill-rule="evenodd" clip-rule="evenodd" d="M0.416748 27.9167C0.416748 23.3143 4.14771 19.5833 8.75008 19.5833C13.3524 19.5833 17.0834 23.3143 17.0834 27.9167C17.0834 32.519 13.3524 36.25 8.75008 36.25C4.14771 36.25 0.416748 32.519 0.416748 27.9167ZM8.75008 22.0833C5.52842 22.0833 2.91675 24.695 2.91675 27.9167C2.91675 31.1383 5.52842 33.75 8.75008 33.75C11.9717 33.75 14.5834 31.1383 14.5834 27.9167C14.5834 24.695 11.9717 22.0833 8.75008 22.0833Z" fill="#C6A15B"/>
<path fill-rule="evenodd" clip-rule="evenodd" d="M22.0834 27.5C22.0834 22.6675 26.0009 18.75 30.8334 18.75C35.6659 18.75 39.5834 22.6675 39.5834 27.5C39.5834 32.3325 35.6659 36.25 30.8334 36.25C26.0009 36.25 22.0834 32.3325 22.0834 27.5ZM30.8334 21.25C27.3816 21.25 24.5834 24.0482 24.5834 27.5C24.5834 30.9518 27.3816 33.75 30.8334 33.75C34.2852 33.75 37.0834 30.9518 37.0834 27.5C37.0834 24.0482 34.2852 21.25 30.8334 21.25Z" fill="#C6A15B"/>
<path fill-rule="evenodd" clip-rule="evenodd" d="M14.581 5C14.581 4.30964 15.1406 3.75 15.831 3.75H23.3314C23.8694 3.75 24.347 4.09423 24.5172 4.6046L32.0195 27.1046C32.2379 27.7595 31.884 28.4674 31.2291 28.6858C30.5742 28.9042 29.8663 28.5503 29.6479 27.8954L22.4305 6.25H15.831C15.1406 6.25 14.581 5.69036 14.581 5Z" fill="#C6A15B"/>
<path fill-rule="evenodd" clip-rule="evenodd" d="M27.3841 13.1962C27.8111 13.7386 27.7175 14.5245 27.1751 14.9515L9.98803 28.4822C9.4456 28.9092 8.65969 28.8157 8.23265 28.2733C7.80562 27.7308 7.89917 26.9449 8.4416 26.5179L25.6287 12.9872C26.1711 12.5602 26.957 12.6537 27.3841 13.1962Z" fill="#C6A15B"/>
<path fill-rule="evenodd" clip-rule="evenodd" d="M35.4329 7.16064C36.0805 7.39976 36.4117 8.1186 36.1726 8.76622L34.6342 12.9329C34.4529 13.4239 33.9849 13.7499 33.4615 13.7499H26.4014C25.7111 13.7499 25.1514 13.1903 25.1514 12.4999C25.1514 11.8096 25.7111 11.2499 26.4014 11.2499H32.5906L33.8273 7.90031C34.0664 7.25269 34.7853 6.92153 35.4329 7.16064Z" fill="#C6A15B"/>
<path fill-rule="evenodd" clip-rule="evenodd" d="M5.41675 13.3114C5.41675 12.621 5.97639 12.0614 6.66675 12.0614H12.5001C13.1904 12.0614 13.7501 12.621 13.7501 13.3114C13.7501 14.0017 13.1904 14.5614 12.5001 14.5614H6.66675C5.97639 14.5614 5.41675 14.0017 5.41675 13.3114Z" fill="#C6A15B"/>
<path fill-rule="evenodd" clip-rule="evenodd" d="M12.1259 12.1407C12.7845 11.9338 13.4861 12.3001 13.693 12.9587L16.4202 21.643C16.6271 22.3016 16.2608 23.0032 15.6022 23.2101C14.9435 23.4169 14.2419 23.0507 14.0351 22.392L11.3078 13.7078C11.101 13.0491 11.4673 12.3475 12.1259 12.1407Z" fill="#C6A15B"/>
</svg>
