<svg width="40" height="40" viewBox="0 0 40 40" fill="none" xmlns="http://www.w3.org/2000/svg">
<path fill-rule="evenodd" clip-rule="evenodd" d="M4.99992 5.41602C4.7698 5.41602 4.58325 5.60256 4.58325 5.83268V25.8327C4.58325 26.0628 4.7698 26.2493 4.99992 26.2493H34.9999C35.23 26.2493 35.4166 26.0628 35.4166 25.8327V5.83268C35.4166 5.60256 35.23 5.41602 34.9999 5.41602H4.99992ZM2.08325 5.83268C2.08325 4.22185 3.38909 2.91602 4.99992 2.91602H34.9999C36.6107 2.91602 37.9166 4.22185 37.9166 5.83268V25.8327C37.9166 27.4435 36.6107 28.7493 34.9999 28.7493H4.99992C3.38909 28.7493 2.08325 27.4435 2.08325 25.8327V5.83268Z" fill="#C6A15B"/>
<path fill-rule="evenodd" clip-rule="evenodd" d="M12.9166 12.4993C12.9166 11.809 13.4762 11.2493 14.1666 11.2493H25.8333C26.5236 11.2493 27.0833 11.809 27.0833 12.4993V18.3327C27.0833 19.023 26.5236 19.5827 25.8333 19.5827C25.1429 19.5827 24.5833 19.023 24.5833 18.3327V13.7493H15.4166V18.3327C15.4166 19.023 14.8569 19.5827 14.1666 19.5827C13.4762 19.5827 12.9166 19.023 12.9166 18.3327V12.4993Z" fill="#C6A15B"/>
<path fill-rule="evenodd" clip-rule="evenodd" d="M13.7499 32.4993C13.7499 31.809 14.3096 31.2493 14.9999 31.2493H24.9999C25.6903 31.2493 26.2499 31.809 26.2499 32.4993C26.2499 33.1897 25.6903 33.7493 24.9999 33.7493H14.9999C14.3096 33.7493 13.7499 33.1897 13.7499 32.4993Z" fill="#C6A15B"/>
<path fill-rule="evenodd" clip-rule="evenodd" d="M12.9166 27.4993C12.9166 26.809 13.4762 26.2493 14.1666 26.2493H25.8333C26.5236 26.2493 27.0833 26.809 27.0833 27.4993C27.0833 28.1897 26.5236 28.7493 25.8333 28.7493H14.1666C13.4762 28.7493 12.9166 28.1897 12.9166 27.4993Z" fill="#C6A15B"/>
<path fill-rule="evenodd" clip-rule="evenodd" d="M26.8721 21.2665C27.553 21.38 28.0131 22.0241 27.8996 22.705L26.2757 32.4486L27.0459 35.5297C27.2134 36.1994 26.8062 36.8781 26.1364 37.0456C25.4667 37.213 24.788 36.8058 24.6206 36.136L23.7872 32.8027C23.7456 32.6363 23.7387 32.4632 23.7669 32.294L25.4336 22.294C25.5471 21.6131 26.1911 21.1531 26.8721 21.2665Z" fill="#C6A15B"/>
<path fill-rule="evenodd" clip-rule="evenodd" d="M13.1277 21.2665C13.8087 21.1531 14.4527 21.6131 14.5662 22.294L16.2329 32.294C16.2611 32.4632 16.2542 32.6363 16.2126 32.8027L15.3793 36.136C15.2118 36.8058 14.5332 37.213 13.8634 37.0456C13.1937 36.8781 12.7865 36.1994 12.9539 35.5297L13.7242 32.4486L12.1003 22.705C11.9868 22.0241 12.4468 21.38 13.1277 21.2665Z" fill="#C6A15B"/>
<path fill-rule="evenodd" clip-rule="evenodd" d="M19.9999 21.2493C20.6903 21.2493 21.2499 21.809 21.2499 22.4993V35.8327C21.2499 36.523 20.6903 37.0827 19.9999 37.0827C19.3096 37.0827 18.7499 36.523 18.7499 35.8327V22.4993C18.7499 21.809 19.3096 21.2493 19.9999 21.2493Z" fill="#C6A15B"/>
<path fill-rule="evenodd" clip-rule="evenodd" d="M10.4166 22.4993C10.4166 21.809 10.9762 21.2493 11.6666 21.2493H28.3333C29.0236 21.2493 29.5833 21.809 29.5833 22.4993C29.5833 23.1897 29.0236 23.7493 28.3333 23.7493H11.6666C10.9762 23.7493 10.4166 23.1897 10.4166 22.4993Z" fill="#C6A15B"/>
</svg>
