<svg width="40" height="40" viewBox="0 0 40 40" fill="none" xmlns="http://www.w3.org/2000/svg">
<path d="M6.66659 23.334L4.99992 20.0007H34.9999L33.3333 23.334M23.3333 20.0007H8.33325L23.3333 3.33398V20.0007ZM23.3333 20.0007H31.6666L23.3333 9.16732L23.3333 20.0007ZM3.33325 28.334L5.41659 29.4601C6.74992 30.1808 8.24992 30.1808 9.58325 29.4601C10.9166 28.7394 12.4166 28.7394 13.7499 29.4601C15.0833 30.1808 16.5833 30.1808 17.9166 29.4601C19.2499 28.7394 20.7499 28.7394 22.0833 29.4601C23.4166 30.1808 24.9166 30.1808 26.2499 29.4601C27.5833 28.7394 29.0833 28.7394 30.4166 29.4601C31.7499 30.1808 33.2499 30.1808 34.5833 29.4601L36.6666 28.334M3.33325 33.334L5.41659 34.4601C6.74992 35.1808 8.24992 35.1808 9.58325 34.4601C10.9166 33.7394 12.4166 33.7394 13.7499 34.4601C15.0833 35.1808 16.5833 35.1808 17.9166 34.4601C19.2499 33.7394 20.7499 33.7394 22.0833 34.4601C23.4166 35.1808 24.9166 35.1808 26.2499 34.4601C27.5833 33.7394 29.0833 33.7394 30.4166 34.4601C31.7499 35.1808 33.2499 35.1808 34.5833 34.4601L36.6666 33.334" stroke="#C6A15B" stroke-width="2.5" stroke-miterlimit="2" stroke-linecap="round" stroke-linejoin="round"/>
</svg>
