<svg width="40" height="40" viewBox="0 0 40 40" fill="none" xmlns="http://www.w3.org/2000/svg">
<path fill-rule="evenodd" clip-rule="evenodd" d="M2.08325 19.9993C2.08325 11.6993 10.3795 5.41602 19.9999 5.41602C29.6203 5.41602 37.9166 11.6993 37.9166 19.9993C37.9166 28.2994 29.6203 34.5827 19.9999 34.5827C10.3795 34.5827 2.08325 28.2994 2.08325 19.9993ZM19.9999 7.91602C11.2108 7.91602 4.58325 13.5717 4.58325 19.9993C4.58325 26.427 11.2108 32.0827 19.9999 32.0827C28.789 32.0827 35.4166 26.427 35.4166 19.9993C35.4166 13.5717 28.789 7.91602 19.9999 7.91602Z" fill="#C6A15B"/>
<path fill-rule="evenodd" clip-rule="evenodd" d="M13.4643 13.7253C15.1975 12.6854 17.5111 12.0827 19.9999 12.0827C22.4887 12.0827 24.8024 12.6854 26.5356 13.7253C28.2439 14.7503 29.5833 16.3404 29.5833 18.3327C29.5833 20.325 28.2439 21.9151 26.5356 22.9401C24.8024 23.98 22.4887 24.5827 19.9999 24.5827C17.5111 24.5827 15.1975 23.98 13.4643 22.9401C11.7559 21.9151 10.4166 20.325 10.4166 18.3327C10.4166 16.3404 11.7559 14.7503 13.4643 13.7253ZM14.7505 15.869C13.4427 16.6537 12.9166 17.5636 12.9166 18.3327C12.9166 19.1018 13.4427 20.0117 14.7505 20.7963C16.0334 21.5661 17.8864 22.0827 19.9999 22.0827C22.1135 22.0827 23.9665 21.5661 25.2493 20.7963C26.5571 20.0117 27.0833 19.1018 27.0833 18.3327C27.0833 17.5636 26.5571 16.6537 25.2493 15.869C23.9665 15.0993 22.1135 14.5827 19.9999 14.5827C17.8864 14.5827 16.0334 15.0993 14.7505 15.869Z" fill="#C6A15B"/>
<path fill-rule="evenodd" clip-rule="evenodd" d="M19.9999 5.41602C20.6903 5.41602 21.2499 5.97566 21.2499 6.66602V13.3327C21.2499 14.023 20.6903 14.5827 19.9999 14.5827C19.3096 14.5827 18.7499 14.023 18.7499 13.3327V6.66602C18.7499 5.97566 19.3096 5.41602 19.9999 5.41602Z" fill="#C6A15B"/>
<path fill-rule="evenodd" clip-rule="evenodd" d="M27.7111 15.6859L27.7099 15.6877C27.7093 15.6887 27.7096 15.6882 27.7099 15.6877L27.7195 15.6737C27.7302 15.6583 27.7488 15.6319 27.7751 15.596C27.8279 15.5242 27.9111 15.4153 28.0231 15.2817C28.2485 15.0129 28.5835 14.6527 29.015 14.294C29.8879 13.5685 31.072 12.916 32.4999 12.916C33.1902 12.916 33.7499 12.3564 33.7499 11.666C33.7499 10.9757 33.1902 10.416 32.4999 10.416C30.2819 10.416 28.5494 11.4302 27.417 12.3714C26.8459 12.846 26.4062 13.3191 26.1075 13.6753C25.9575 13.8542 25.8413 14.0058 25.7601 14.1162C25.7195 14.1715 25.6876 14.2167 25.6644 14.2501L25.6363 14.2912L25.6272 14.3048L25.6239 14.3098L25.6226 14.3118C25.6223 14.3122 25.6215 14.3135 26.6665 14.9993L25.6215 14.3135C25.2427 14.8907 25.4035 15.6656 25.9807 16.0444C26.5576 16.423 27.3322 16.2625 27.7111 15.6859Z" fill="#C6A15B"/>
<path fill-rule="evenodd" clip-rule="evenodd" d="M6.24992 11.666C6.24992 10.9757 6.80956 10.416 7.49992 10.416C9.94924 10.416 11.6923 11.4053 12.8095 12.3984C13.3629 12.8903 13.7631 13.3823 14.0278 13.756C14.1606 13.9435 14.2608 14.1034 14.3304 14.2215C14.3653 14.2807 14.3926 14.3296 14.4126 14.3666L14.4373 14.413L14.4456 14.4291L14.4488 14.4353L14.4501 14.438C14.4504 14.4386 14.4513 14.4403 13.3652 14.9834L14.4513 14.4403C14.76 15.0578 14.5097 15.8086 13.8923 16.1174C13.2774 16.4248 12.5302 16.1779 12.2191 15.566L12.2144 15.5573C12.208 15.5454 12.1954 15.5227 12.1766 15.4907C12.1388 15.4266 12.0762 15.326 11.9877 15.201C11.8097 14.9497 11.5328 14.6084 11.1486 14.2669C10.3909 13.5934 9.21726 12.916 7.49992 12.916C6.80956 12.916 6.24992 12.3564 6.24992 11.666Z" fill="#C6A15B"/>
<path fill-rule="evenodd" clip-rule="evenodd" d="M15.4006 23.6834L15.3775 23.6917C15.354 23.7004 15.3139 23.7157 15.2593 23.7382C15.15 23.7832 14.9834 23.8567 14.7766 23.9629C14.3615 24.176 13.7938 24.5163 13.2031 25.0161C12.0326 26.0066 10.7689 27.6218 10.404 30.1761C10.3063 30.8595 9.67318 31.3344 8.98976 31.2368C8.30635 31.1391 7.83147 30.506 7.9291 29.8226C8.39753 26.5436 10.0505 24.4088 11.5883 23.1076C12.3518 22.4616 13.0861 22.0206 13.6346 21.7389C13.9096 21.5977 14.1401 21.4954 14.3075 21.4265C14.3912 21.392 14.4594 21.3658 14.5096 21.3472C14.5347 21.3379 14.5554 21.3305 14.5713 21.3249L14.5916 21.3179L14.599 21.3153L14.602 21.3143C14.6027 21.3141 14.6046 21.3135 14.9999 22.4993L14.6046 21.3135C15.2595 21.0952 15.9674 21.4491 16.1857 22.104C16.4034 22.7572 16.052 23.463 15.4006 23.6834Z" fill="#C6A15B"/>
<path fill-rule="evenodd" clip-rule="evenodd" d="M23.8051 22.1317C24.0081 21.4719 24.7076 21.1016 25.3675 21.3046L24.9998 22.4993C25.3675 21.3046 25.3668 21.3044 25.3675 21.3046L25.37 21.3054L25.373 21.3063L25.3805 21.3087L25.4014 21.3154C25.4179 21.3207 25.4396 21.3279 25.466 21.337C25.5189 21.3551 25.5911 21.3808 25.68 21.4148C25.8575 21.4827 26.1029 21.5841 26.3946 21.7244C26.9757 22.004 27.754 22.4443 28.5499 23.0928C30.1546 24.4003 31.8414 26.5703 32.08 29.9103C32.1292 30.5989 31.6108 31.197 30.9222 31.2461C30.2336 31.2953 29.6355 30.777 29.5864 30.0884C29.4083 27.595 28.1785 26.015 26.9707 25.0309C26.3603 24.5335 25.7583 24.1926 25.3109 23.9773C25.0882 23.8703 24.9071 23.7959 24.7868 23.7498C24.7268 23.7269 24.6822 23.7111 24.6555 23.702L24.6294 23.6932C24.6286 23.6929 24.628 23.6927 24.6276 23.6926M23.8051 22.1317C23.6026 22.79 23.9707 23.4877 24.6276 23.6926L23.8051 22.1317Z" fill="#C6A15B"/>
</svg>
