<svg width="40" height="40" viewBox="0 0 40 40" fill="none" xmlns="http://www.w3.org/2000/svg">
<path fill-rule="evenodd" clip-rule="evenodd" d="M9.16667 4.58398C8.93655 4.58398 8.75 4.77053 8.75 5.00065V31.6673C8.75 31.8974 8.93655 32.084 9.16667 32.084H29.1667C29.3968 32.084 29.5833 31.8974 29.5833 31.6673V5.00065C29.5833 4.77053 29.3968 4.58398 29.1667 4.58398H9.16667ZM6.25 5.00065C6.25 3.38982 7.55584 2.08398 9.16667 2.08398H29.1667C30.7775 2.08398 32.0833 3.38982 32.0833 5.00065V31.6673C32.0833 33.2781 30.7775 34.584 29.1667 34.584H9.16667C7.55584 34.584 6.25 33.2781 6.25 31.6673V5.00065Z" fill="#C6A15B"/>
<path fill-rule="evenodd" clip-rule="evenodd" d="M6.25 18.334C6.25 17.6436 6.80964 17.084 7.5 17.084H30.8333C31.5237 17.084 32.0833 17.6436 32.0833 18.334C32.0833 19.0243 31.5237 19.584 30.8333 19.584H7.5C6.80964 19.584 6.25 19.0243 6.25 18.334Z" fill="#C6A15B"/>
<path fill-rule="evenodd" clip-rule="evenodd" d="M7.5 15.4173C8.19036 15.4173 8.75 15.977 8.75 16.6673V20.0007C8.75 20.691 8.19036 21.2507 7.5 21.2507C6.80964 21.2507 6.25 20.691 6.25 20.0007V16.6673C6.25 15.977 6.80964 15.4173 7.5 15.4173Z" fill="#C6A15B"/>
<path fill-rule="evenodd" clip-rule="evenodd" d="M30.8333 15.4173C31.5237 15.4173 32.0833 15.977 32.0833 16.6673V20.0007C32.0833 20.691 31.5237 21.2507 30.8333 21.2507C30.143 21.2507 29.5833 20.691 29.5833 20.0007V16.6673C29.5833 15.977 30.143 15.4173 30.8333 15.4173Z" fill="#C6A15B"/>
<path fill-rule="evenodd" clip-rule="evenodd" d="M12.5 22.9173C13.1904 22.9173 13.75 23.477 13.75 24.1673V27.5007C13.75 28.191 13.1904 28.7507 12.5 28.7507C11.8096 28.7507 11.25 28.191 11.25 27.5007V24.1673C11.25 23.477 11.8096 22.9173 12.5 22.9173Z" fill="#C6A15B"/>
<path fill-rule="evenodd" clip-rule="evenodd" d="M12.5 7.91732C13.1904 7.91732 13.75 8.47696 13.75 9.16732V12.5007C13.75 13.191 13.1904 13.7507 12.5 13.7507C11.8096 13.7507 11.25 13.191 11.25 12.5007V9.16732C11.25 8.47696 11.8096 7.91732 12.5 7.91732Z" fill="#C6A15B"/>
<path fill-rule="evenodd" clip-rule="evenodd" d="M27.5 32.084C28.1904 32.084 28.75 32.6436 28.75 33.334V36.6673C28.75 37.3577 28.1904 37.9173 27.5 37.9173C26.8096 37.9173 26.25 37.3577 26.25 36.6673V33.334C26.25 32.6436 26.8096 32.084 27.5 32.084Z" fill="#C6A15B"/>
<path fill-rule="evenodd" clip-rule="evenodd" d="M10.8333 32.084C11.5237 32.084 12.0833 32.6436 12.0833 33.334V36.6673C12.0833 37.3577 11.5237 37.9173 10.8333 37.9173C10.143 37.9173 9.58333 37.3577 9.58333 36.6673V33.334C9.58333 32.6436 10.143 32.084 10.8333 32.084Z" fill="#C6A15B"/>
</svg>
