<svg width="40" height="40" viewBox="0 0 40 40" fill="none" xmlns="http://www.w3.org/2000/svg">
<path fill-rule="evenodd" clip-rule="evenodd" d="M23.8508 5.72694C23.2459 6.40753 22.9166 7.35032 22.9166 8.33398V18.7503L20.4166 18.7506V8.33398C20.4166 6.81765 20.9206 5.26044 21.9823 4.06603C23.0645 2.84861 24.6607 2.08398 26.6666 2.08398C28.6724 2.08398 30.2687 2.84861 31.3508 4.06603C32.4125 5.26044 32.9166 6.81765 32.9166 8.33398V28.3332C32.9166 28.3333 32.9166 28.334 31.6666 28.334C30.4166 28.334 30.4166 28.3339 30.4166 28.3338V8.33398C30.4166 7.35032 30.0873 6.40753 29.4823 5.72694C28.8978 5.06936 27.9941 4.58398 26.6666 4.58398C25.3391 4.58398 24.4354 5.06936 23.8508 5.72694Z" fill="#C6A15B"/>
<path fill-rule="evenodd" clip-rule="evenodd" d="M26.0512 28.1789C26.1294 27.5534 26.6612 27.084 27.2916 27.084H36.0416C36.672 27.084 37.2038 27.5534 37.2819 28.1789L37.9069 33.1789C37.9514 33.5347 37.841 33.8925 37.6037 34.1612C37.3664 34.43 37.0251 34.584 36.6666 34.584H26.6666C26.3081 34.584 25.9668 34.43 25.7295 34.1612C25.4922 33.8925 25.3818 33.5347 25.4262 33.1789L26.0512 28.1789ZM28.3951 29.584L28.0826 32.084H35.2506L34.9381 29.584H28.3951Z" fill="#C6A15B"/>
<path fill-rule="evenodd" clip-rule="evenodd" d="M4.58325 13.1218C4.58325 9.78721 7.28646 7.08398 10.6211 7.08398C17.4117 7.08398 22.9166 12.5889 22.9166 19.3795V33.2393C22.9166 33.9819 22.3146 34.584 21.5719 34.584H8.33325C7.6429 34.584 7.08325 34.0243 7.08325 33.334C7.08325 32.6436 7.6429 32.084 8.33325 32.084H20.4166V19.3795C20.4166 13.9696 16.031 9.58398 10.6211 9.58398C8.66718 9.58398 7.08325 11.1679 7.08325 13.1218V24.1673C7.08325 24.8577 6.52361 25.4173 5.83325 25.4173C5.1429 25.4173 4.58325 24.8577 4.58325 24.1673V13.1218Z" fill="#C6A15B"/>
<path fill-rule="evenodd" clip-rule="evenodd" d="M8.33325 24.584C6.26218 24.584 4.58325 26.2629 4.58325 28.334C4.58325 30.4051 6.26218 32.084 8.33325 32.084C10.4043 32.084 12.0833 30.4051 12.0833 28.334C12.0833 26.2629 10.4043 24.584 8.33325 24.584ZM2.08325 28.334C2.08325 24.8822 4.88147 22.084 8.33325 22.084C11.785 22.084 14.5833 24.8822 14.5833 28.334C14.5833 31.7858 11.785 34.584 8.33325 34.584C4.88147 34.584 2.08325 31.7858 2.08325 28.334Z" fill="#C6A15B"/>
<path fill-rule="evenodd" clip-rule="evenodd" d="M11.6666 7.08398C12.3569 7.08398 12.9166 7.64363 12.9166 8.33398V24.1673C12.9166 24.8577 12.3569 25.4173 11.6666 25.4173C10.9762 25.4173 10.4166 24.8577 10.4166 24.1673V8.33398C10.4166 7.64363 10.9762 7.08398 11.6666 7.08398Z" fill="#C6A15B"/>
</svg>
