<svg width="40" height="40" viewBox="0 0 40 40" fill="none" xmlns="http://www.w3.org/2000/svg">
<path d="M3.92766 28.0664C3.32036 27.7381 2.56191 27.9643 2.23363 28.5716C1.90534 29.1789 2.13153 29.9374 2.73884 30.2656L3.92766 28.0664ZM5.41659 30.2922L4.82217 31.3918L4.82222 31.3918L5.41659 30.2922ZM9.58325 30.2922L10.1776 31.3918L10.1777 31.3918L9.58325 30.2922ZM13.7499 30.2922L13.1555 31.3918L13.1556 31.3918L13.7499 30.2922ZM17.9166 30.2922L18.5109 31.3918L18.511 31.3918L17.9166 30.2922ZM22.0833 30.2922L21.4888 31.3918L21.4889 31.3918L22.0833 30.2922ZM26.2499 30.2922L26.8443 31.3918L26.8443 31.3918L26.2499 30.2922ZM30.4166 30.2922L29.8222 31.3918L29.8222 31.3918L30.4166 30.2922ZM34.5833 30.2922L35.1776 31.3918L35.1777 31.3918L34.5833 30.2922ZM37.261 30.2656C37.8683 29.9374 38.0945 29.1789 37.7662 28.5716C37.4379 27.9643 36.6795 27.7381 36.0722 28.0664L37.261 30.2656ZM3.92766 33.0664C3.32036 32.7381 2.56191 32.9643 2.23363 33.5716C1.90534 34.1789 2.13153 34.9374 2.73884 35.2656L3.92766 33.0664ZM5.41659 35.2922L4.82217 36.3918L4.82222 36.3918L5.41659 35.2922ZM9.58325 35.2922L10.1776 36.3918L10.1777 36.3918L9.58325 35.2922ZM13.7499 35.2922L13.1555 36.3918L13.1556 36.3918L13.7499 35.2922ZM17.9166 35.2922L18.5109 36.3918L18.511 36.3918L17.9166 35.2922ZM22.0833 35.2922L21.4888 36.3918L21.4889 36.3918L22.0833 35.2922ZM26.2499 35.2922L26.8443 36.3918L26.8443 36.3918L26.2499 35.2922ZM30.4166 35.2922L29.8222 36.3918L29.8222 36.3918L30.4166 35.2922ZM34.5833 35.2922L35.1776 36.3918L35.1777 36.3918L34.5833 35.2922ZM37.261 35.2656C37.8683 34.9374 38.0945 34.1789 37.7662 33.5716C37.4379 32.9643 36.6795 32.7381 36.0722 33.0664L37.261 35.2656ZM19.6206 24.4692C19.788 25.1389 20.4667 25.5461 21.1364 25.3787C21.8062 25.2113 22.2134 24.5326 22.0459 23.8628L19.6206 24.4692ZM21.2126 20.5295C21.0452 19.8598 20.3665 19.4526 19.6967 19.62C19.027 19.7874 18.6198 20.4661 18.7872 21.1359L21.2126 20.5295ZM4.38783 8.49492C4.01719 7.91249 3.24458 7.7408 2.66216 8.11144C2.07973 8.48207 1.90804 9.25468 2.27868 9.83711L4.38783 8.49492ZM9.16659 18.3327L8.11201 19.0038C8.28929 19.2824 8.56961 19.4795 8.89175 19.5521L9.16659 18.3327ZM19.9999 20.7743L19.7251 21.9938C19.8153 22.0141 19.9075 22.0243 19.9999 22.0243V20.7743ZM34.9999 22.0243C35.6903 22.0243 36.2499 21.4647 36.2499 20.7743C36.2499 20.084 35.6903 19.5243 34.9999 19.5243V22.0243ZM2.73884 30.2656L4.82217 31.3918L6.011 29.1926L3.92766 28.0664L2.73884 30.2656ZM4.82222 31.3918C6.52644 32.313 8.47339 32.313 10.1776 31.3918L8.98889 29.1925C8.02644 29.7127 6.97339 29.7127 6.01095 29.1925L4.82222 31.3918ZM10.1777 31.3918C11.1401 30.8716 12.1931 30.8716 13.1555 31.3918L14.3443 29.1926C12.6401 28.2713 10.6931 28.2713 8.98884 29.1926L10.1777 31.3918ZM13.1556 31.3918C14.8598 32.313 16.8067 32.313 18.5109 31.3918L17.3222 29.1925C16.3598 29.7127 15.3067 29.7127 14.3443 29.1925L13.1556 31.3918ZM18.511 31.3918C19.4734 30.8716 20.5264 30.8716 21.4888 31.3918L22.6777 29.1926C20.9734 28.2713 19.0264 28.2713 17.3222 29.1926L18.511 31.3918ZM21.4889 31.3918C23.1931 32.313 25.1401 32.313 26.8443 31.3918L25.6556 29.1925C24.6931 29.7127 23.6401 29.7127 22.6776 29.1925L21.4889 31.3918ZM26.8443 31.3918C27.8068 30.8716 28.8598 30.8716 29.8222 31.3918L31.011 29.1926C29.3068 28.2713 27.3598 28.2713 25.6555 29.1926L26.8443 31.3918ZM29.8222 31.3918C31.5264 32.313 33.4734 32.313 35.1776 31.3918L33.9889 29.1925C33.0264 29.7127 31.9734 29.7127 31.0109 29.1925L29.8222 31.3918ZM35.1777 31.3918L37.261 30.2656L36.0722 28.0664L33.9888 29.1926L35.1777 31.3918ZM2.73884 35.2656L4.82217 36.3918L6.011 34.1926L3.92766 33.0664L2.73884 35.2656ZM4.82222 36.3918C6.52644 37.313 8.47339 37.313 10.1776 36.3918L8.98889 34.1925C8.02644 34.7127 6.97339 34.7127 6.01095 34.1925L4.82222 36.3918ZM10.1777 36.3918C11.1401 35.8716 12.1931 35.8716 13.1555 36.3918L14.3443 34.1926C12.6401 33.2713 10.6931 33.2713 8.98884 34.1926L10.1777 36.3918ZM13.1556 36.3918C14.8598 37.313 16.8067 37.313 18.5109 36.3918L17.3222 34.1925C16.3598 34.7127 15.3067 34.7127 14.3443 34.1925L13.1556 36.3918ZM18.511 36.3918C19.4734 35.8716 20.5264 35.8716 21.4888 36.3918L22.6777 34.1926C20.9734 33.2713 19.0264 33.2713 17.3222 34.1926L18.511 36.3918ZM21.4889 36.3918C23.1931 37.313 25.1401 37.313 26.8443 36.3918L25.6556 34.1925C24.6931 34.7127 23.6401 34.7127 22.6776 34.1925L21.4889 36.3918ZM26.8443 36.3918C27.8068 35.8716 28.8598 35.8716 29.8222 36.3918L31.011 34.1926C29.3068 33.2713 27.3598 33.2713 25.6555 34.1926L26.8443 36.3918ZM29.8222 36.3918C31.5264 37.313 33.4734 37.313 35.1776 36.3918L33.9889 34.1925C33.0264 34.7127 31.9734 34.7127 31.0109 34.1925L29.8222 36.3918ZM35.1777 36.3918L37.261 35.2656L36.0722 33.0664L33.9888 34.1926L35.1777 36.3918ZM20.8333 16.2493C23.8248 16.2493 26.2499 13.8242 26.2499 10.8327H23.7499C23.7499 12.4435 22.4441 13.7493 20.8333 13.7493V16.2493ZM26.2499 10.8327C26.2499 7.84116 23.8248 5.41602 20.8333 5.41602V7.91602C22.4441 7.91602 23.7499 9.22187 23.7499 10.8327H26.2499ZM20.8333 5.41602C17.8417 5.41602 15.4166 7.84116 15.4166 10.8327H17.9166C17.9166 9.22187 19.2224 7.91602 20.8333 7.91602V5.41602ZM15.4166 10.8327C15.4166 13.8242 17.8417 16.2493 20.8333 16.2493V13.7493C19.2224 13.7493 17.9166 12.4435 17.9166 10.8327H15.4166ZM22.0459 23.8628L21.2126 20.5295L18.7872 21.1359L19.6206 24.4692L22.0459 23.8628ZM2.27868 9.83711L8.11201 19.0038L10.2212 17.6616L4.38783 8.49492L2.27868 9.83711ZM8.89175 19.5521L19.7251 21.9938L20.2748 19.5549L9.44142 17.1133L8.89175 19.5521ZM19.9999 22.0243H34.9999V19.5243H19.9999V22.0243Z" fill="#C6A15B"/>
</svg>
