<svg width="40" height="40" viewBox="0 0 40 40" fill="none" xmlns="http://www.w3.org/2000/svg">
<path fill-rule="evenodd" clip-rule="evenodd" d="M5.41675 15.834C5.41675 8.16528 12.0231 2.08398 20.0001 2.08398C27.9771 2.08398 34.5834 8.16528 34.5834 15.834C34.5834 21.7216 30.9902 27.225 27.6122 31.1308C25.9001 33.1104 24.1916 34.7385 22.9121 35.8714C22.2714 36.4387 21.7361 36.8837 21.3586 37.1887C21.1698 37.3413 21.0204 37.4589 20.9168 37.5394C20.865 37.5796 20.8247 37.6106 20.7966 37.632L20.7639 37.6569L20.7546 37.664L20.7517 37.6661C20.7514 37.6664 20.7501 37.6673 20.0001 36.6673C19.2501 37.6673 19.2498 37.6671 19.2494 37.6668L19.2456 37.664L19.2363 37.6569L19.2035 37.632C19.1755 37.6106 19.1351 37.5796 19.0833 37.5394C18.9798 37.4589 18.8303 37.3413 18.6415 37.1887C18.2641 36.8837 17.7288 36.4387 17.0881 35.8714C15.8085 34.7385 14.1 33.1104 12.388 31.1308C9.00997 27.225 5.41675 21.7216 5.41675 15.834ZM20.0001 36.6673L19.2494 37.6668C19.6939 38.0002 20.3056 38.0007 20.7501 37.6673L20.0001 36.6673ZM20.0001 35.071C20.3316 34.7988 20.7591 34.4385 21.2548 33.9997C22.4752 32.9191 24.1 31.3701 25.7213 29.4955C29.01 25.6929 32.0834 20.7797 32.0834 15.834C32.0834 9.69552 26.7508 4.58398 20.0001 4.58398C13.2494 4.58398 7.91675 9.69552 7.91675 15.834C7.91675 20.7797 10.9902 25.6929 14.2789 29.4955C15.9001 31.3701 17.525 32.9191 18.7454 33.9997C19.241 34.4385 19.6685 34.7988 20.0001 35.071Z" fill="#C6A15B"/>
<path fill-rule="evenodd" clip-rule="evenodd" d="M17.5001 10.4173C18.1904 10.4173 18.7501 10.977 18.7501 11.6673V25.0007C18.7501 25.691 18.1904 26.2507 17.5001 26.2507C16.8097 26.2507 16.2501 25.691 16.2501 25.0007V11.6673C16.2501 10.977 16.8097 10.4173 17.5001 10.4173Z" fill="#C6A15B"/>
<path fill-rule="evenodd" clip-rule="evenodd" d="M16.2501 11.6673C16.2501 10.977 16.8097 10.4173 17.5001 10.4173H22.5001C25.0314 10.4173 27.0834 12.4694 27.0834 15.0007C27.0834 17.5319 25.0314 19.584 22.5001 19.584H17.5001C16.8097 19.584 16.2501 19.0243 16.2501 18.334V11.6673ZM18.7501 12.9173V17.084H22.5001C23.6506 17.084 24.5834 16.1512 24.5834 15.0007C24.5834 13.8501 23.6506 12.9173 22.5001 12.9173H18.7501Z" fill="#C6A15B"/>
</svg>
