<svg width="40" height="40" viewBox="0 0 40 40" fill="none" xmlns="http://www.w3.org/2000/svg">
<path d="M17.0833 37.5001C18.6941 37.5001 20 36.1943 20 34.5835C20 32.9726 18.6941 31.6668 17.0833 31.6668C15.4725 31.6668 14.1666 32.9726 14.1666 34.5835C14.1666 36.1943 15.4725 37.5001 17.0833 37.5001Z" fill="#C6A15B"/>
<path d="M31.25 37.5001C32.8608 37.5001 34.1666 36.1943 34.1666 34.5835C34.1666 32.9726 32.8608 31.6668 31.25 31.6668C29.6391 31.6668 28.3333 32.9726 28.3333 34.5835C28.3333 36.1943 29.6391 37.5001 31.25 37.5001Z" fill="#C6A15B"/>
<path d="M3.12657 4.30676C3.50951 3.73235 4.2856 3.57713 4.86001 3.96007L12.36 8.96007C12.6265 9.13771 12.8146 9.41083 12.8856 9.72311L16.8311 27.0835H31.5647L34.996 15.4168H20.8333C20.1429 15.4168 19.5833 14.8572 19.5833 14.1668C19.5833 13.4764 20.1429 12.9168 20.8333 12.9168H36.6666C37.0606 12.9168 37.4315 13.1025 37.6675 13.4179C37.9035 13.7333 37.977 14.1416 37.8658 14.5195L33.6992 28.6862C33.5427 29.2182 33.0545 29.5835 32.5 29.5835H15.8333C15.2497 29.5835 14.7437 29.1796 14.6144 28.6105L10.5583 10.7635L3.47326 6.0402C2.89885 5.65726 2.74363 4.88117 3.12657 4.30676Z" fill="#C6A15B"/>
<path d="M19.5833 21.6668C19.5833 20.9764 20.1429 20.4168 20.8333 20.4168H34.1666C34.857 20.4168 35.4166 20.9764 35.4166 21.6668C35.4166 22.3572 34.857 22.9168 34.1666 22.9168H20.8333C20.1429 22.9168 19.5833 22.3572 19.5833 21.6668Z" fill="#C6A15B"/>
</svg>
