<svg width="40" height="40" viewBox="0 0 40 40" fill="none" xmlns="http://www.w3.org/2000/svg">
<path fill-rule="evenodd" clip-rule="evenodd" d="M17.3573 9.21983C17.7886 8.68075 18.5752 8.59335 19.1142 9.02461L35.7809 22.3579C36.2926 22.7673 36.4013 23.5022 36.0301 24.0422L26.8634 37.3755C26.4723 37.9444 25.6941 38.0885 25.1252 37.6974C24.5563 37.3063 24.4122 36.5281 24.8033 35.9592L33.3114 23.5839L17.5525 10.9768C17.0134 10.5455 16.926 9.75891 17.3573 9.21983Z" fill="#C6A15B"/>
<path fill-rule="evenodd" clip-rule="evenodd" d="M16.0465 2.24871C16.5359 1.96904 17.152 2.05154 17.5506 2.45013L20.8839 5.78346C21.2825 6.18205 21.365 6.7981 21.0853 7.28752L14.4186 18.9542C14.2254 19.2924 13.8854 19.5212 13.4993 19.573C13.1131 19.6247 12.7249 19.4934 12.4495 19.2179L4.11613 10.8846C3.84065 10.6091 3.70936 10.2209 3.76107 9.83476C3.81278 9.44862 4.04158 9.10867 4.37984 8.91538L16.0465 2.24871ZM7.04112 10.274L13.06 16.2929L18.441 6.87612L16.4579 4.893L7.04112 10.274Z" fill="#C6A15B"/>
<path fill-rule="evenodd" clip-rule="evenodd" d="M8.75 36.6673C8.75 35.977 9.30964 35.4173 10 35.4173H31.6667C32.357 35.4173 32.9167 35.977 32.9167 36.6673C32.9167 37.3577 32.357 37.9173 31.6667 37.9173H10C9.30964 37.9173 8.75 37.3577 8.75 36.6673Z" fill="#C6A15B"/>
<path fill-rule="evenodd" clip-rule="evenodd" d="M14.1667 32.084C14.857 32.084 15.4167 32.6436 15.4167 33.334V36.6673C15.4167 37.3577 14.857 37.9173 14.1667 37.9173C13.4763 37.9173 12.9167 37.3577 12.9167 36.6673V33.334C12.9167 32.6436 13.4763 32.084 14.1667 32.084Z" fill="#C6A15B"/>
</svg>
