<svg width="40" height="40" viewBox="0 0 40 40" fill="none" xmlns="http://www.w3.org/2000/svg">
<path fill-rule="evenodd" clip-rule="evenodd" d="M29.4409 3.04803C29.9346 2.80116 30.5318 2.90738 30.9102 3.30935L37.5768 10.3927C37.7951 10.6246 37.9166 10.931 37.9166 11.2494V15.4161C37.9166 15.8137 37.7274 16.1876 37.407 16.4232C37.0866 16.6587 36.6733 16.7278 36.2937 16.6092L30.4959 14.7973C29.4749 16.4577 29.1666 18.4985 29.1666 20.3119C29.1666 21.3289 29.2637 22.2284 29.3609 22.8727C29.4094 23.1939 29.4575 23.4489 29.4927 23.6203C29.5102 23.7059 29.5245 23.7704 29.5339 23.8116L29.5442 23.8556L29.5459 23.8629C29.639 24.2361 29.5553 24.6321 29.3185 24.9353C29.0816 25.2387 28.7182 25.4161 28.3333 25.4161H11.6666C11.2275 25.4161 10.8206 25.1857 10.5947 24.8092L11.6666 24.1661C10.5947 24.8092 10.5949 24.8095 10.5947 24.8092L10.5929 24.8062L10.5902 24.8017L10.5822 24.788L10.5558 24.7427C10.5338 24.7046 10.5031 24.6507 10.4651 24.5819C10.3891 24.4443 10.2834 24.2468 10.1579 23.9959C9.90733 23.4947 9.57643 22.7773 9.24617 21.8966C8.58905 20.1443 7.91659 17.6983 7.91659 14.9994C7.91659 14.309 8.47623 13.7494 9.16659 13.7494H21.3541C21.4054 13.3813 21.4821 12.9467 21.5969 12.4681C21.9385 11.045 22.6314 9.17532 24.0508 7.51924C25.3766 5.97256 26.7037 4.86586 27.7056 4.14229C28.207 3.78012 28.6288 3.51261 28.9309 3.33283C29.082 3.2429 29.2033 3.17478 29.2899 3.12763C29.3332 3.10405 29.3679 3.0857 29.3932 3.07247L29.4243 3.05645L29.4344 3.0513L29.4381 3.04943L29.4409 3.04803C29.4412 3.04787 29.4409 3.04803 29.9999 4.16606L29.4409 3.04803ZM29.7759 5.75192C29.5974 5.86833 29.3935 6.00708 29.1693 6.16899C28.2961 6.79959 27.1233 7.77623 25.949 9.14622C24.8685 10.4068 24.3114 11.8704 24.0279 13.0515C23.8873 13.6375 23.8175 14.1397 23.783 14.4902C23.7658 14.6651 23.7575 14.8009 23.7535 14.8889C23.7515 14.9329 23.7506 14.9648 23.7502 14.9836L23.7499 15.0018C23.7495 15.6918 23.19 16.2494 22.4999 16.2494H10.4716C10.6294 18.0675 11.1031 19.7285 11.587 21.0188C11.8817 21.8048 12.1758 22.4416 12.394 22.8779C12.4004 22.8908 12.4068 22.9035 12.4131 22.9161H26.842C26.7486 22.216 26.6666 21.3166 26.6666 20.3119C26.6666 18.0083 27.0977 14.9595 29.0238 12.5519C29.3456 12.1497 29.8811 11.986 30.3728 12.1396L35.4166 13.7158V11.7451L29.7759 5.75192ZM23.7499 15.0018C23.7499 15.0022 23.7499 15.0032 23.7499 15.0018ZM12.7393 23.5244C12.7395 23.5246 12.7395 23.5247 12.7393 23.5244Z" fill="#C6A15B"/>
<path fill-rule="evenodd" clip-rule="evenodd" d="M24.5191 23.0122C25.1563 22.7467 25.8882 23.048 26.1537 23.6853L30.3204 33.6853C30.5859 34.3225 30.2845 35.0544 29.6473 35.3199C29.01 35.5854 28.2782 35.2841 28.0127 34.6468L23.846 24.6468C23.5805 24.0096 23.8818 23.2777 24.5191 23.0122Z" fill="#C6A15B"/>
<path fill-rule="evenodd" clip-rule="evenodd" d="M15.4806 23.0122C16.1179 23.2777 16.4192 24.0096 16.1537 24.6468L11.987 34.6468C11.7215 35.2841 10.9897 35.5854 10.3524 35.3199C9.71515 35.0544 9.4138 34.3225 9.67933 33.6853L13.846 23.6853C14.1115 23.048 14.8434 22.7467 15.4806 23.0122Z" fill="#C6A15B"/>
<path fill-rule="evenodd" clip-rule="evenodd" d="M3.33325 30.8327C2.44937 31.7166 2.44989 31.7171 2.45043 31.7176L2.45162 31.7188L2.45434 31.7215L2.46118 31.7283L2.48054 31.7471C2.49597 31.7619 2.51646 31.7814 2.54205 31.8052C2.59324 31.8527 2.66488 31.9173 2.75739 31.9966C2.94241 32.1552 3.21097 32.3724 3.56641 32.6283C4.27744 33.1403 5.33581 33.8067 6.76776 34.4676C9.63648 35.7917 13.9815 37.0827 19.9999 37.0827C26.0183 37.0827 30.3634 35.7917 33.2321 34.4676C34.664 33.8067 35.7224 33.1403 36.4334 32.6283C36.7889 32.3724 37.0574 32.1552 37.2424 31.9966C37.335 31.9173 37.4066 31.8527 37.4578 31.8052C37.4834 31.7814 37.5039 31.7619 37.5193 31.7471L37.5387 31.7283L37.5455 31.7215L37.5482 31.7188L37.5494 31.7176C37.5499 31.7171 37.5505 31.7166 36.6666 30.8327L37.5494 31.7176C38.0376 31.2295 38.0386 30.437 37.5505 29.9488C37.0636 29.462 36.2751 29.4606 35.7867 29.9449C35.7862 29.9453 35.7855 29.946 35.7845 29.947L35.7574 29.9725C35.7296 29.9982 35.6825 30.041 35.6155 30.0985C35.4815 30.2133 35.2683 30.3867 34.9727 30.5995C34.3816 31.0251 33.4608 31.6086 32.1844 32.1977C29.6365 33.3737 25.6482 34.5827 19.9999 34.5827C14.3516 34.5827 10.3634 33.3737 7.81541 32.1977C6.53902 31.6086 5.61823 31.0251 5.02717 30.5995C4.73158 30.3867 4.51837 30.2133 4.38437 30.0985C4.31738 30.041 4.2702 29.9982 4.24245 29.9725L4.21619 29.9478M4.21619 29.9478L4.214 29.9457C3.72553 29.4615 2.93619 29.462 2.44937 29.9488C1.96121 30.437 1.96228 31.2295 2.45043 31.7176L3.33325 30.8327" fill="#C6A15B"/>
<path fill-rule="evenodd" clip-rule="evenodd" d="M2.08325 9.99935C2.08325 9.30899 2.6429 8.74935 3.33325 8.74935C5.67306 8.74935 7.47617 9.45783 8.6963 10.678C9.90686 11.8885 10.4166 13.4768 10.4166 14.9993C10.4166 15.6897 9.85694 16.2493 9.16659 16.2493C8.47623 16.2493 7.91659 15.6897 7.91659 14.9994C7.91659 14.0219 7.59297 13.1102 6.92854 12.4457C6.27367 11.7909 5.16011 11.2493 3.33325 11.2493C2.6429 11.2493 2.08325 10.6897 2.08325 9.99935Z" fill="#C6A15B"/>
</svg>
