<svg width="40" height="40" viewBox="0 0 40 40" fill="none" xmlns="http://www.w3.org/2000/svg">
<path fill-rule="evenodd" clip-rule="evenodd" d="M4.99992 7.91602C4.7698 7.91602 4.58325 8.10256 4.58325 8.33268V21.666C4.58325 21.8961 4.7698 22.0827 4.99992 22.0827H34.9999C35.23 22.0827 35.4166 21.8961 35.4166 21.666V8.33268C35.4166 8.10256 35.23 7.91602 34.9999 7.91602H4.99992ZM2.08325 8.33268C2.08325 6.72185 3.38909 5.41602 4.99992 5.41602H34.9999C36.6107 5.41602 37.9166 6.72185 37.9166 8.33268V21.666C37.9166 23.2768 36.6107 24.5827 34.9999 24.5827H4.99992C3.38909 24.5827 2.08325 23.2768 2.08325 21.666V8.33268Z" fill="#C6A15B"/>
<path fill-rule="evenodd" clip-rule="evenodd" d="M8.74992 16.666C8.74992 15.9757 9.30956 15.416 9.99992 15.416H29.9999C30.6903 15.416 31.2499 15.9757 31.2499 16.666V23.3327C31.2499 24.023 30.6903 24.5827 29.9999 24.5827H9.99992C9.30956 24.5827 8.74992 24.023 8.74992 23.3327V16.666ZM11.2499 17.916V22.0827H28.7499V17.916H11.2499Z" fill="#C6A15B"/>
<path fill-rule="evenodd" clip-rule="evenodd" d="M25.4166 11.666C25.4166 10.9757 25.9762 10.416 26.6666 10.416H29.9999C30.6903 10.416 31.2499 10.9757 31.2499 11.666C31.2499 12.3564 30.6903 12.916 29.9999 12.916H26.6666C25.9762 12.916 25.4166 12.3564 25.4166 11.666Z" fill="#C6A15B"/>
<path fill-rule="evenodd" clip-rule="evenodd" d="M19.9999 27.0827C20.6903 27.0827 21.2499 27.6423 21.2499 28.3327V33.3327C21.2499 34.023 20.6903 34.5827 19.9999 34.5827C19.3096 34.5827 18.7499 34.023 18.7499 33.3327V28.3327C18.7499 27.6423 19.3096 27.0827 19.9999 27.0827Z" fill="#C6A15B"/>
<path fill-rule="evenodd" clip-rule="evenodd" d="M13.3333 28.7493C14.0236 28.7493 14.5833 29.309 14.5833 29.9993V31.666C14.5833 32.3564 14.0236 32.916 13.3333 32.916C12.6429 32.916 12.0833 32.3564 12.0833 31.666V29.9993C12.0833 29.309 12.6429 28.7493 13.3333 28.7493Z" fill="#C6A15B"/>
<path fill-rule="evenodd" clip-rule="evenodd" d="M26.6666 28.7493C27.3569 28.7493 27.9166 29.309 27.9166 29.9993V31.666C27.9166 32.3564 27.3569 32.916 26.6666 32.916C25.9762 32.916 25.4166 32.3564 25.4166 31.666V29.9993C25.4166 29.309 25.9762 28.7493 26.6666 28.7493Z" fill="#C6A15B"/>
</svg>
