<svg width="40" height="40" viewBox="0 0 40 40" fill="none" xmlns="http://www.w3.org/2000/svg">
<path fill-rule="evenodd" clip-rule="evenodd" d="M8.33341 6.25C8.1033 6.25 7.91675 6.43655 7.91675 6.66667V25C7.91675 25.2301 8.1033 25.4167 8.33341 25.4167H31.6667C31.8969 25.4167 32.0834 25.2301 32.0834 25V6.66667C32.0834 6.43655 31.8969 6.25 31.6667 6.25H8.33341ZM5.41675 6.66667C5.41675 5.05584 6.72258 3.75 8.33341 3.75H31.6667C33.2776 3.75 34.5834 5.05584 34.5834 6.66667V25C34.5834 26.6108 33.2776 27.9167 31.6667 27.9167H8.33341C6.72258 27.9167 5.41675 26.6108 5.41675 25V6.66667Z" fill="#C6A15B"/>
<path d="M11.6667 24.1667C12.5872 24.1667 13.3334 23.4205 13.3334 22.5C13.3334 21.5795 12.5872 20.8333 11.6667 20.8333C10.7463 20.8333 10.0001 21.5795 10.0001 22.5C10.0001 23.4205 10.7463 24.1667 11.6667 24.1667Z" fill="#C6A15B"/>
<path d="M28.3334 24.1667C29.2539 24.1667 30.0001 23.4205 30.0001 22.5C30.0001 21.5795 29.2539 20.8333 28.3334 20.8333C27.4129 20.8333 26.6667 21.5795 26.6667 22.5C26.6667 23.4205 27.4129 24.1667 28.3334 24.1667Z" fill="#C6A15B"/>
<path fill-rule="evenodd" clip-rule="evenodd" d="M10.4167 10C10.4167 9.30964 10.9764 8.75 11.6667 8.75H28.3334C29.0238 8.75 29.5834 9.30964 29.5834 10V18.3333C29.5834 19.0237 29.0238 19.5833 28.3334 19.5833H11.6667C10.9764 19.5833 10.4167 19.0237 10.4167 18.3333V10ZM12.9167 11.25V17.0833H27.0834V11.25H12.9167Z" fill="#C6A15B"/>
<path fill-rule="evenodd" clip-rule="evenodd" d="M25.8363 25.7324C26.3523 25.2738 27.1424 25.3202 27.601 25.8362L34.2677 33.3362C34.7263 33.8522 34.6799 34.6423 34.1639 35.1009C33.6479 35.5596 32.8578 35.5131 32.3992 34.9971L25.7325 27.4971C25.2739 26.9812 25.3203 26.1911 25.8363 25.7324Z" fill="#C6A15B"/>
<path fill-rule="evenodd" clip-rule="evenodd" d="M15.0506 25.7828C15.5388 26.2709 15.5388 27.0624 15.0506 27.5505L7.55063 35.0506C7.06248 35.5387 6.27102 35.5387 5.78286 35.0506C5.29471 34.5624 5.29471 33.7709 5.78286 33.2828L13.2829 25.7828C13.771 25.2946 14.5625 25.2946 15.0506 25.7828Z" fill="#C6A15B"/>
</svg>
