<svg width="40" height="40" viewBox="0 0 40 40" fill="none" xmlns="http://www.w3.org/2000/svg">
<path fill-rule="evenodd" clip-rule="evenodd" d="M2.91675 4.16602C2.91675 3.47566 3.47639 2.91602 4.16675 2.91602H27.5001C28.1904 2.91602 28.7501 3.47566 28.7501 4.16602V35.8327C28.7501 36.523 28.1904 37.0827 27.5001 37.0827H4.16675C3.47639 37.0827 2.91675 36.523 2.91675 35.8327V4.16602ZM5.41675 5.41602V34.5827H26.2501V5.41602H5.41675Z" fill="#C6A15B"/>
<path fill-rule="evenodd" clip-rule="evenodd" d="M26.2501 17.4993C26.2501 16.809 26.8097 16.2493 27.5001 16.2493H35.8334C36.5238 16.2493 37.0834 16.809 37.0834 17.4993V35.8327C37.0834 36.523 36.5238 37.0827 35.8334 37.0827H27.5001C26.8097 37.0827 26.2501 36.523 26.2501 35.8327C26.2501 35.1423 26.8097 34.5827 27.5001 34.5827H34.5834V18.7493H27.5001C26.8097 18.7493 26.2501 18.1897 26.2501 17.4993Z" fill="#C6A15B"/>
<path fill-rule="evenodd" clip-rule="evenodd" d="M9.58341 17.4993C9.58341 16.809 10.1431 16.2493 10.8334 16.2493H20.8334C21.5238 16.2493 22.0834 16.809 22.0834 17.4993C22.0834 18.1897 21.5238 18.7493 20.8334 18.7493H10.8334C10.1431 18.7493 9.58341 18.1897 9.58341 17.4993Z" fill="#C6A15B"/>
<path fill-rule="evenodd" clip-rule="evenodd" d="M15.8334 11.2493C16.5238 11.2493 17.0834 11.809 17.0834 12.4993V22.4993C17.0834 23.1897 16.5238 23.7493 15.8334 23.7493C15.1431 23.7493 14.5834 23.1897 14.5834 22.4993V12.4993C14.5834 11.809 15.1431 11.2493 15.8334 11.2493Z" fill="#C6A15B"/>
</svg>
