<svg width="40" height="40" viewBox="0 0 40 40" fill="none" xmlns="http://www.w3.org/2000/svg">
<path fill-rule="evenodd" clip-rule="evenodd" d="M20 20.4173C20.6904 20.4173 21.25 20.977 21.25 21.6673V31.6673C21.25 32.3577 20.6904 32.9173 20 32.9173C19.3096 32.9173 18.75 32.3577 18.75 31.6673V21.6673C18.75 20.977 19.3096 20.4173 20 20.4173Z" fill="#C6A15B"/>
<path fill-rule="evenodd" clip-rule="evenodd" d="M20 3.75065C20.6904 3.75065 21.25 4.3103 21.25 5.00065V21.6673C21.25 22.3577 20.6904 22.9173 20 22.9173C19.3096 22.9173 18.75 22.3577 18.75 21.6673V5.00065C18.75 4.3103 19.3096 3.75065 20 3.75065Z" fill="#C6A15B"/>
<path fill-rule="evenodd" clip-rule="evenodd" d="M20 2.08398C20.6904 2.08398 21.25 2.64363 21.25 3.33398V5.00065C21.25 5.69101 20.6904 6.25065 20 6.25065C19.3096 6.25065 18.75 5.69101 18.75 5.00065V3.33398C18.75 2.64363 19.3096 2.08398 20 2.08398Z" fill="#C6A15B"/>
<path fill-rule="evenodd" clip-rule="evenodd" d="M34.2172 27.4501C34.7054 27.9383 34.7054 28.7297 34.2172 29.2179L29.2172 34.2179C28.9828 34.4523 28.6649 34.584 28.3333 34.584H6.66667C5.97631 34.584 5.41667 34.0243 5.41667 33.334C5.41667 32.6436 5.97631 32.084 6.66667 32.084H27.8156L32.4494 27.4501C32.9376 26.9619 33.7291 26.9619 34.2172 27.4501Z" fill="#C6A15B"/>
<path fill-rule="evenodd" clip-rule="evenodd" d="M12.5 32.084C13.1904 32.084 13.75 32.6436 13.75 33.334V36.6673C13.75 37.3577 13.1904 37.9173 12.5 37.9173C11.8096 37.9173 11.25 37.3577 11.25 36.6673V33.334C11.25 32.6436 11.8096 32.084 12.5 32.084Z" fill="#C6A15B"/>
<path fill-rule="evenodd" clip-rule="evenodd" d="M26.6667 32.084C27.357 32.084 27.9167 32.6436 27.9167 33.334V36.6673C27.9167 37.3577 27.357 37.9173 26.6667 37.9173C25.9763 37.9173 25.4167 37.3577 25.4167 36.6673V33.334C25.4167 32.6436 25.9763 32.084 26.6667 32.084Z" fill="#C6A15B"/>
<path fill-rule="evenodd" clip-rule="evenodd" d="M3.75 19.9543C3.75 11.0017 11.029 3.75065 20 3.75065C28.971 3.75065 36.25 11.0017 36.25 19.9543V21.6673C36.25 22.3577 35.6904 22.9173 35 22.9173C34.3096 22.9173 33.75 22.3577 33.75 21.6673C33.75 20.9607 33.4557 20.2042 32.9568 19.6281C32.4603 19.0548 31.8462 18.7507 31.25 18.7507C30.6538 18.7507 30.0397 19.0548 29.5432 19.6281C29.0443 20.2042 28.75 20.9607 28.75 21.6673C28.75 22.3577 28.1904 22.9173 27.5 22.9173C26.8096 22.9173 26.25 22.3577 26.25 21.6673C26.25 20.9607 25.9557 20.2042 25.4568 19.6281C24.9603 19.0548 24.3462 18.7507 23.75 18.7507C23.1538 18.7507 22.5397 19.0548 22.0432 19.6281C21.5443 20.2042 21.25 20.9607 21.25 21.6673C21.25 22.3577 20.6904 22.9173 20 22.9173C19.3096 22.9173 18.75 22.3577 18.75 21.6673C18.75 20.9607 18.4557 20.2042 17.9568 19.6281C17.4603 19.0548 16.8462 18.7507 16.25 18.7507C15.6538 18.7507 15.0397 19.0548 14.5432 19.6281C14.0443 20.2042 13.75 20.9607 13.75 21.6673C13.75 22.3577 13.1904 22.9173 12.5 22.9173C11.8096 22.9173 11.25 22.3577 11.25 21.6673C11.25 20.9607 10.9557 20.2042 10.4568 19.6281C9.96027 19.0548 9.34616 18.7507 8.75 18.7507C8.15385 18.7507 7.53974 19.0548 7.04325 19.6281C6.54432 20.2042 6.25 20.9607 6.25 21.6673C6.25 22.3577 5.69036 22.9173 5 22.9173C4.30964 22.9173 3.75 22.3577 3.75 21.6673V19.9543ZM6.61505 16.8045C7.2483 16.46 7.96916 16.2507 8.75 16.2507C10.2249 16.2507 11.4858 16.9975 12.3466 17.9914C12.3989 18.0518 12.4501 18.1135 12.5 18.1764C12.55 18.1135 12.6011 18.0518 12.6534 17.9914C13.5142 16.9975 14.7751 16.2507 16.25 16.2507C17.7249 16.2507 18.9858 16.9975 19.8466 17.9914C19.8989 18.0518 19.9501 18.1135 20 18.1764C20.05 18.1135 20.1011 18.0518 20.1534 17.9914C21.0142 16.9975 22.2751 16.2507 23.75 16.2507C25.2249 16.2507 26.4858 16.9975 27.3466 17.9914C27.3989 18.0518 27.4501 18.1135 27.5 18.1764C27.55 18.1135 27.6011 18.0518 27.6534 17.9914C28.5142 16.9975 29.7751 16.2507 31.25 16.2507C32.0308 16.2507 32.7517 16.46 33.385 16.8045C31.9573 10.7565 26.509 6.25065 20 6.25065C13.491 6.25065 8.04266 10.7565 6.61505 16.8045Z" fill="#C6A15B"/>
<path fill-rule="evenodd" clip-rule="evenodd" d="M20.6712 6.05518C20.6708 6.05542 20.6716 6.05494 20.6712 6.05518L20 5.00065C20.6712 6.05518 20.671 6.05532 20.6712 6.05518L20.6664 6.05824L20.6365 6.07788C20.6083 6.09645 20.5642 6.12588 20.5059 6.16588C20.3892 6.2459 20.2158 6.36798 19.9992 6.52964C19.5655 6.85345 18.9626 7.33324 18.2975 7.94906C16.9559 9.19144 15.4185 10.9352 14.4715 13.018C13.5323 15.0839 13.3365 17.171 13.3848 18.7649C13.4089 19.558 13.493 20.2166 13.5698 20.6714C13.6082 20.8984 13.6445 21.0735 13.6701 21.1879C13.683 21.245 13.6931 21.2868 13.6994 21.3123L13.706 21.3381L12.5001 21.6673C11.2942 21.9963 11.2941 21.9959 11.2939 21.9955L11.2931 21.9923L11.2915 21.9865L11.2872 21.97L11.2737 21.9171C11.2628 21.8732 11.2481 21.8122 11.2307 21.735C11.1962 21.5808 11.1511 21.362 11.1047 21.0877C11.0122 20.54 10.914 19.7663 10.886 18.8406C10.8301 16.997 11.0511 14.5008 12.1957 11.9833C13.3326 9.48275 15.1283 7.47653 16.5989 6.11473C17.34 5.42847 18.013 4.89264 18.5036 4.52635C18.7493 4.34295 18.9502 4.20136 19.0922 4.10398C19.1632 4.05527 19.2196 4.01757 19.2596 3.99117L19.3072 3.96007L19.3213 3.95094L19.3259 3.94799L19.3276 3.94692C19.3279 3.94673 19.3288 3.94612 20 5.00065L19.3276 3.94692C19.91 3.57624 20.6839 3.74708 21.0545 4.32948C21.425 4.9115 21.2527 5.68422 20.6712 6.05518ZM13.706 21.3381C13.7061 21.3383 13.7059 21.3378 13.706 21.3381ZM13.706 21.3381C13.8872 22.0039 13.4948 22.6916 12.8291 22.8733C12.1631 23.0549 11.4756 22.6615 11.2939 21.9955L12.5001 21.6673" fill="#C6A15B"/>
<path fill-rule="evenodd" clip-rule="evenodd" d="M18.9079 4.3936C19.2432 3.79013 20.0042 3.57271 20.6076 3.90799L20 5.00065C20.6071 3.90797 20.6071 3.90772 20.6076 3.90799L20.6097 3.90912L20.612 3.91045L20.6178 3.91369L20.6334 3.92259L20.6806 3.95011C20.7189 3.9728 20.7707 4.00429 20.8348 4.04488C20.9629 4.12605 21.14 4.24378 21.3553 4.40067C21.7856 4.71427 22.3698 5.18557 23.0198 5.83555C24.3208 7.1366 25.8864 9.15528 27.0006 12.0519C28.0875 14.8773 28.527 17.2809 28.6928 18.9949C28.7757 19.8517 28.7902 20.5363 28.783 21.0155C28.7794 21.2551 28.7704 21.4435 28.7618 21.5765C28.7575 21.643 28.7533 21.6957 28.7499 21.734L28.7455 21.7807L28.7439 21.7959L28.7434 21.8014L28.7431 21.8036C28.7431 21.8041 28.7429 21.8055 27.5155 21.669L28.7429 21.8055C28.6666 22.4916 28.0485 22.986 27.3624 22.9097C26.6768 22.8335 26.1827 22.2163 26.258 21.5308C26.258 21.5307 26.258 21.5309 26.258 21.5308L26.2596 21.5138C26.2613 21.4946 26.264 21.4614 26.267 21.4148C26.2731 21.3215 26.2804 21.1746 26.2833 20.978C26.2892 20.5848 26.2777 19.9934 26.2044 19.2356C26.0578 17.7205 25.6641 15.5407 24.6673 12.9495C23.698 10.4294 22.3468 8.6981 21.252 7.60331C20.7041 7.05537 20.2207 6.6673 19.8828 6.421C19.7139 6.29794 19.5818 6.21059 19.4967 6.15666C19.4542 6.12971 19.4235 6.11115 19.4058 6.10068L19.3893 6.09104C19.3892 6.09096 19.3894 6.0911 19.3893 6.09104" fill="#C6A15B"/>
<path fill-rule="evenodd" clip-rule="evenodd" d="M20 3.75065C20.6904 3.75065 21.25 4.3103 21.25 5.00065V20.834C21.25 21.5243 20.6904 22.084 20 22.084C19.3096 22.084 18.75 21.5243 18.75 20.834V5.00065C18.75 4.3103 19.3096 3.75065 20 3.75065Z" fill="#C6A15B"/>
<path fill-rule="evenodd" clip-rule="evenodd" d="M22.5 17.5007C22.5 16.8103 23.0596 16.2507 23.75 16.2507C25.2249 16.2507 26.4858 16.9975 27.3466 17.9914C27.3989 18.0518 27.4501 18.1135 27.5 18.1764C27.55 18.1135 27.6011 18.0518 27.6534 17.9914C28.5142 16.9975 29.7751 16.2507 31.25 16.2507C31.9404 16.2507 32.5 16.8103 32.5 17.5007C32.5 18.191 31.9404 18.7507 31.25 18.7507C30.6538 18.7507 30.0397 19.0548 29.5432 19.6281C29.0443 20.2042 28.75 20.9607 28.75 21.6673C28.75 22.3577 28.1904 22.9173 27.5 22.9173C26.8096 22.9173 26.25 22.3577 26.25 21.6673C26.25 20.9607 25.9557 20.2042 25.4568 19.6281C24.9603 19.0548 24.3462 18.7507 23.75 18.7507C23.0596 18.7507 22.5 18.191 22.5 17.5007Z" fill="#C6A15B"/>
<path fill-rule="evenodd" clip-rule="evenodd" d="M15 17.5007C15 16.8103 15.5596 16.2507 16.25 16.2507C17.7249 16.2507 18.9858 16.9975 19.8466 17.9914C19.8989 18.0518 19.9501 18.1135 20 18.1764C20.05 18.1135 20.1011 18.0518 20.1534 17.9914C21.0142 16.9975 22.2751 16.2507 23.75 16.2507C24.4404 16.2507 25 16.8103 25 17.5007C25 18.191 24.4404 18.7507 23.75 18.7507C23.1538 18.7507 22.5397 19.0548 22.0432 19.6281C21.5443 20.2042 21.25 20.9607 21.25 21.6673C21.25 22.3577 20.6904 22.9173 20 22.9173C19.3096 22.9173 18.75 22.3577 18.75 21.6673C18.75 20.9607 18.4557 20.2042 17.9568 19.6281C17.4603 19.0548 16.8462 18.7507 16.25 18.7507C15.5596 18.7507 15 18.191 15 17.5007Z" fill="#C6A15B"/>
<path fill-rule="evenodd" clip-rule="evenodd" d="M7.5 17.5007C7.5 16.8103 8.05964 16.2507 8.75 16.2507C10.2249 16.2507 11.4858 16.9975 12.3466 17.9914C12.3989 18.0518 12.4501 18.1135 12.5 18.1764C12.55 18.1135 12.6011 18.0518 12.6534 17.9914C13.5142 16.9975 14.7751 16.2507 16.25 16.2507C16.9404 16.2507 17.5 16.8103 17.5 17.5007C17.5 18.191 16.9404 18.7507 16.25 18.7507C15.6538 18.7507 15.0397 19.0548 14.5432 19.6281C14.0443 20.2042 13.75 20.9607 13.75 21.6673C13.75 22.3577 13.1904 22.9173 12.5 22.9173C11.8096 22.9173 11.25 22.3577 11.25 21.6673C11.25 20.9607 10.9557 20.2042 10.4568 19.6281C9.96027 19.0548 9.34616 18.7507 8.75 18.7507C8.05964 18.7507 7.5 18.191 7.5 17.5007Z" fill="#C6A15B"/>
<path fill-rule="evenodd" clip-rule="evenodd" d="M20 6.25065C17.7206 6.25065 15.5745 6.80242 13.6849 7.77802C13.0715 8.09473 12.3174 7.85419 12.0007 7.24077C11.684 6.62735 11.9246 5.87333 12.538 5.55662C14.774 4.40215 17.3125 3.75065 20 3.75065C22.6874 3.75065 25.2261 4.40214 27.4621 5.55663C28.0756 5.87335 28.3161 6.62737 27.9994 7.24079C27.6826 7.8542 26.9286 8.09473 26.3152 7.77801C24.4257 6.80243 22.2793 6.25065 20 6.25065Z" fill="#C6A15B"/>
</svg>
