<svg width="40" height="40" viewBox="0 0 40 40" fill="none" xmlns="http://www.w3.org/2000/svg">
<path fill-rule="evenodd" clip-rule="evenodd" d="M19.9999 4.58398C15.871 4.58398 12.4791 7.74585 12.1155 11.7795C12.0575 12.4238 11.5175 12.9173 10.8706 12.9173H10.8333C7.38147 12.9173 4.58325 15.7155 4.58325 19.1673C4.58325 22.6191 7.38147 25.4173 10.8333 25.4173H29.1666C32.6184 25.4173 35.4166 22.6191 35.4166 19.1673C35.4166 15.7155 32.6184 12.9173 29.1666 12.9173H29.1293C28.4824 12.9173 27.9424 12.4238 27.8843 11.7795C27.5208 7.74585 24.1288 4.58398 19.9999 4.58398ZM9.77924 10.4802C10.7205 5.69373 14.9381 2.08398 19.9999 2.08398C25.0618 2.08398 29.2794 5.69373 30.2206 10.4802C34.5561 11.0007 37.9166 14.6915 37.9166 19.1673C37.9166 23.9998 33.9991 27.9173 29.1666 27.9173H10.8333C6.00077 27.9173 2.08325 23.9998 2.08325 19.1673C2.08325 14.6915 5.44375 11.0007 9.77924 10.4802Z" fill="#C6A15B"/>
<path fill-rule="evenodd" clip-rule="evenodd" d="M25.0505 18.2834C25.5386 18.7716 25.5386 19.563 25.0505 20.0512L20.8838 24.2179C20.3956 24.706 19.6042 24.706 19.116 24.2179C18.6279 23.7297 18.6279 22.9383 19.116 22.4501L23.2827 18.2834C23.7709 17.7953 24.5623 17.7953 25.0505 18.2834Z" fill="#C6A15B"/>
<path fill-rule="evenodd" clip-rule="evenodd" d="M14.116 14.9501C14.6042 14.4619 15.3956 14.4619 15.8838 14.9501L20.8838 19.9501C21.372 20.4383 21.372 21.2297 20.8838 21.7179C20.3956 22.206 19.6042 22.206 19.116 21.7179L14.116 16.7179C13.6279 16.2297 13.6279 15.4383 14.116 14.9501Z" fill="#C6A15B"/>
<path fill-rule="evenodd" clip-rule="evenodd" d="M19.9999 13.7507C20.6903 13.7507 21.2499 14.3103 21.2499 15.0007V36.6673C21.2499 37.3577 20.6903 37.9173 19.9999 37.9173C19.3096 37.9173 18.7499 37.3577 18.7499 36.6673V15.0007C18.7499 14.3103 19.3096 13.7507 19.9999 13.7507Z" fill="#C6A15B"/>
</svg>
