<svg width="40" height="40" viewBox="0 0 40 40" fill="none" xmlns="http://www.w3.org/2000/svg">
<path fill-rule="evenodd" clip-rule="evenodd" d="M5.41675 11.3327C5.41675 9.28381 7.26959 7.91602 9.16675 7.91602C11.064 7.91602 12.9167 9.28383 12.9167 11.3327V28.666C12.9167 30.7149 11.064 32.0827 9.16675 32.0827C7.26959 32.0827 5.41675 30.7149 5.41675 28.666V11.3327ZM9.16675 10.416C8.30249 10.416 7.91675 10.9884 7.91675 11.3327V28.666C7.91675 29.0103 8.30248 29.5827 9.16675 29.5827C10.031 29.5827 10.4167 29.0103 10.4167 28.666V11.3327C10.4167 10.9884 10.031 10.416 9.16675 10.416Z" fill="#C6A15B"/>
<path fill-rule="evenodd" clip-rule="evenodd" d="M27.0834 11.3327C27.0834 9.28383 28.9362 7.91602 30.8334 7.91602C32.7306 7.91602 34.5834 9.28383 34.5834 11.3327V28.666C34.5834 30.7149 32.7306 32.0827 30.8334 32.0827C28.9362 32.0827 27.0834 30.7149 27.0834 28.666V11.3327ZM30.8334 10.416C29.9691 10.416 29.5834 10.9884 29.5834 11.3327V28.666C29.5834 29.0103 29.9691 29.5827 30.8334 29.5827C31.6977 29.5827 32.0834 29.0103 32.0834 28.666V11.3327C32.0834 10.9884 31.6977 10.416 30.8334 10.416Z" fill="#C6A15B"/>
<path fill-rule="evenodd" clip-rule="evenodd" d="M0.416748 15.5549C0.416748 13.5029 2.23815 12.0827 4.16675 12.0827C6.09534 12.0827 7.91675 13.5029 7.91675 15.5549V24.4438C7.91675 26.4958 6.09534 27.916 4.16675 27.916C2.23815 27.916 0.416748 26.4958 0.416748 24.4438V15.5549ZM4.16675 14.5827C3.33393 14.5827 2.91675 15.1523 2.91675 15.5549V24.4438C2.91675 24.8464 3.33393 25.416 4.16675 25.416C4.99957 25.416 5.41675 24.8464 5.41675 24.4438V15.5549C5.41675 15.1523 4.99957 14.5827 4.16675 14.5827Z" fill="#C6A15B"/>
<path fill-rule="evenodd" clip-rule="evenodd" d="M32.0834 15.5549C32.0834 13.5029 33.9048 12.0827 35.8334 12.0827C37.7621 12.0827 39.5834 13.5029 39.5834 15.5549V24.4438C39.5834 26.4958 37.7621 27.916 35.8334 27.916C33.9048 27.916 32.0834 26.4958 32.0834 24.4438V15.5549ZM35.8334 14.5827C35.0006 14.5827 34.5834 15.1523 34.5834 15.5549V24.4438C34.5834 24.8464 35.0006 25.416 35.8334 25.416C36.6663 25.416 37.0834 24.8464 37.0834 24.4438V15.5549C37.0834 15.1523 36.6663 14.5827 35.8334 14.5827Z" fill="#C6A15B"/>
<path fill-rule="evenodd" clip-rule="evenodd" d="M10.4167 22.4993C10.4167 23.1897 10.9764 23.7493 11.6667 23.7493H28.3334C29.0238 23.7493 29.5834 23.1897 29.5834 22.4993V17.4993C29.5834 16.809 29.0238 16.2493 28.3334 16.2493H11.6667C10.9764 16.2493 10.4167 16.809 10.4167 17.4993V22.4993ZM12.9167 21.2493V18.7493H27.0834V21.2493H12.9167Z" fill="#C6A15B"/>
</svg>
